<?xml version="1.0" encoding="UTF-8" standalone="no"?>
<svg width="446px" height="162px" viewBox="0 0 446 162" version="1.1" xmlns="http://www.w3.org/2000/svg" xmlns:xlink="http://www.w3.org/1999/xlink">
    <!-- Generator: Sketch 39.1 (31720) - http://www.bohemiancoding.com/sketch -->
    <title>logo</title>
    <desc>Created with Sketch.</desc>
    <defs>
        <path d="M16.640958,59.314649 C16.640958,82.5637677 34.2168468,100.695856 57.5772053,100.695856 C80.9375637,100.695856 98.5134525,82.5637677 98.5134525,59.314649 C98.5134525,36.7329692 80.9375637,19.0458406 57.5772053,19.0458406 C34.2168468,19.0458406 16.640958,36.7329692 16.640958,59.314649 L16.640958,59.314649 Z M31.6583313,59.314649 C31.6583313,43.7410767 43.3385106,31.8384179 57.5772053,31.8384179 C71.8159,31.8384179 83.4960792,43.7410767 83.4960792,59.314649 C83.4960792,75.5556602 71.8159,87.9032782 57.5772053,87.9032782 C43.3385106,87.9032782 31.6583313,75.5556602 31.6583313,59.314649 L31.6583313,59.314649 Z" id="path-1"></path>
    </defs>
    <g id="Page-1" stroke="none" stroke-width="1" fill="none" fill-rule="evenodd">
        <g id="logo">
            <path d="M103.741723,99.3609779 L136.891184,99.3609779 L136.891184,88.4594772 L127.769521,88.4594772 L127.769521,69.1037516 L135.000108,69.1037516 C139.56094,69.1037516 141.007057,70.1049099 142.675654,73.1083845 L153.910874,93.4652684 C156.35815,98.0261002 158.360466,99.3609779 164.923614,99.3609779 L174.156518,99.3609779 L174.156518,88.4594772 L171.598003,88.4594772 C168.928247,88.4594772 167.37089,87.9032782 166.258492,85.9009618 L157.136828,69.4374711 C155.579471,66.5452362 153.243435,65.3215984 153.243435,65.3215984 L153.243435,65.0991188 C162.365099,61.9844043 168.149569,54.1976181 168.149569,43.1848777 C168.149569,32.0608975 162.365099,24.9415501 153.577155,22.0493153 C149.127563,20.7144376 144.344251,20.3807182 138.559781,20.3807182 L103.741723,20.3807182 L103.741723,31.3934587 L113.197106,31.3934587 L113.197106,88.4594772 L103.741723,88.4594772 L103.741723,99.3609779 Z M127.769521,57.4235724 L127.769521,32.0608975 L138.448542,32.0608975 C142.119455,32.0608975 145.12293,32.5058567 147.347726,33.5070149 C151.686078,35.2868517 153.577155,39.2914846 153.577155,44.4085155 C153.577155,52.8627405 148.571364,57.4235724 140.895817,57.4235724 L127.769521,57.4235724 Z M182.388263,99.3609779 L215.982684,99.3609779 L215.982684,88.4594772 L206.416061,88.4594772 L206.416061,31.3934587 L215.982684,31.3934587 L215.982684,20.3807182 L182.388263,20.3807182 L182.388263,31.3934587 L191.843647,31.3934587 L191.843647,88.4594772 L182.388263,88.4594772 L182.388263,99.3609779 Z M227.329144,99.3609779 L287.176157,99.3609779 L287.176157,75.4444204 L274.717299,75.4444204 L274.717299,87.6807986 L251.356941,87.6807986 L251.356941,32.0608975 L260.923564,32.0608975 L260.923564,20.3807182 L227.329144,20.3807182 L227.329144,32.0608975 L236.784527,32.0608975 L236.784527,88.4594772 L227.329144,88.4594772 L227.329144,99.3609779 Z M295.630382,99.3609779 L355.477396,99.3609779 L355.477396,75.4444204 L343.018538,75.4444204 L343.018538,87.6807986 L319.65818,87.6807986 L319.65818,32.0608975 L329.224803,32.0608975 L329.224803,20.3807182 L295.630382,20.3807182 L295.630382,32.0608975 L305.085765,32.0608975 L305.085765,88.4594772 L295.630382,88.4594772 L295.630382,99.3609779 Z M359.593269,99.3609779 L389.183056,99.3609779 L389.183056,88.4594772 L381.39627,88.4594772 L386.290821,73.6645835 L411.208537,73.6645835 L416.103088,88.4594772 L408.316302,88.4594772 L408.316302,99.3609779 L438.017329,99.3609779 L438.017329,88.4594772 L430.786742,88.4594772 L407.092664,20.3807182 L390.517934,20.3807182 L366.823856,88.4594772 L359.593269,88.4594772 L359.593269,99.3609779 Z M389.628015,62.3181237 L397.192322,39.9589234 C398.30472,36.0655304 398.638439,33.0620557 398.638439,33.0620557 L398.972159,33.0620557 C398.972159,33.0620557 399.194638,36.0655304 400.418276,39.9589234 L407.871343,62.3181237 L389.628015,62.3181237 Z" id="RILLA" fill="#283360"></path>
            <path d="M111.684,144 L113.232,144 L113.232,120.24 L122.628,120.24 L122.628,118.8 L102.288,118.8 L102.288,120.24 L111.684,120.24 L111.684,144 Z M124.824,135.036 C124.824,140.76 129.036,144.432 134.112,144.432 C138,144.432 140.52,141.948 140.52,141.948 L139.692,140.688 C139.692,140.688 137.568,142.956 134.112,142.956 C129.936,142.956 126.408,139.968 126.408,134.748 L140.844,134.748 C140.844,134.748 140.916,134.172 140.916,133.776 C140.916,129.42 138.468,125.568 133.572,125.568 C128.964,125.568 124.824,128.952 124.824,135.036 L124.824,135.036 Z M126.516,133.344 C127.164,129.132 130.224,126.972 133.536,126.972 C136.524,126.972 139.152,128.952 139.332,133.344 L126.516,133.344 Z M144.732,135.036 C144.732,140.76 148.944,144.432 154.02,144.432 C158.484,144.432 160.824,141.624 160.824,141.624 L160.032,140.364 C160.032,140.364 157.98,142.956 154.02,142.956 C149.808,142.956 146.316,139.824 146.316,135.036 C146.316,130.176 149.808,127.044 154.02,127.044 C157.476,127.044 159.528,129.348 159.528,129.348 L160.464,128.124 C160.464,128.124 158.304,125.568 154.02,125.568 C149.016,125.568 144.732,129.312 144.732,135.036 L144.732,135.036 Z M165.828,144 L167.34,144 L167.34,135.216 C167.34,134.352 167.412,133.524 167.628,132.768 C168.528,129.42 171.516,127.044 174.9,127.044 C178.932,127.044 179.328,129.996 179.328,133.128 L179.328,144 L180.84,144 L180.84,132.588 C180.84,128.34 179.58,125.568 174.9,125.568 C170.4,125.568 167.88,128.952 167.268,130.644 L167.196,130.644 C167.196,130.644 167.34,129.996 167.34,129.168 L167.34,118.8 L165.828,118.8 L165.828,144 Z M186.924,144 L188.436,144 L188.436,135.216 C188.436,134.352 188.508,133.524 188.724,132.768 C189.624,129.42 192.612,127.044 195.996,127.044 C200.028,127.044 200.424,129.996 200.424,133.128 L200.424,144 L201.936,144 L201.936,132.588 C201.936,128.34 200.676,125.568 195.996,125.568 C191.496,125.568 188.976,128.952 188.364,130.644 L188.292,130.644 C188.292,130.644 188.436,129.996 188.436,129.168 L188.436,126 L186.924,126 L186.924,144 Z M206.688,134.892 C206.688,140.256 210.864,144.432 216.012,144.432 C221.16,144.432 225.336,140.256 225.336,134.892 C225.336,129.636 221.16,125.568 216.012,125.568 C210.864,125.568 206.688,129.636 206.688,134.892 L206.688,134.892 Z M208.272,134.892 C208.272,130.428 211.728,127.044 216.012,127.044 C220.296,127.044 223.752,130.428 223.752,134.892 C223.752,139.464 220.296,142.956 216.012,142.956 C211.728,142.956 208.272,139.464 208.272,134.892 L208.272,134.892 Z M230.16,140.364 C230.16,143.748 232.644,144.144 233.688,144.144 C234.012,144.144 234.336,144.072 234.336,144.072 L234.336,142.668 C234.336,142.668 234.084,142.704 233.796,142.704 C232.968,142.704 231.672,142.416 231.672,139.896 L231.672,118.8 L230.16,118.8 L230.16,140.364 Z M237.288,134.892 C237.288,140.256 241.464,144.432 246.612,144.432 C251.76,144.432 255.936,140.256 255.936,134.892 C255.936,129.636 251.76,125.568 246.612,125.568 C241.464,125.568 237.288,129.636 237.288,134.892 L237.288,134.892 Z M238.872,134.892 C238.872,130.428 242.328,127.044 246.612,127.044 C250.896,127.044 254.352,130.428 254.352,134.892 C254.352,139.464 250.896,142.956 246.612,142.956 C242.328,142.956 238.872,139.464 238.872,134.892 L238.872,134.892 Z M262.056,148.824 L261.336,150.156 C263.1,151.056 265.008,151.56 266.988,151.56 C271.272,151.56 275.232,149.4 275.232,143.892 L275.232,126 L273.72,126 L273.72,128.412 C273.72,128.844 273.828,129.096 273.828,129.096 L273.756,129.096 C273.756,129.096 272.604,125.568 267.492,125.568 C262.812,125.568 259.752,129.096 259.752,134.712 C259.752,140.328 263.064,144 267.744,144 C270.732,144 272.712,142.524 273.792,140.328 L273.864,140.328 C273.864,140.328 273.72,140.976 273.72,141.804 L273.72,143.892 C273.72,148.248 270.732,150.084 266.88,150.084 C264.288,150.084 262.056,148.824 262.056,148.824 L262.056,148.824 Z M267.852,142.524 C264,142.524 261.336,139.572 261.336,134.712 C261.336,129.852 263.64,127.044 267.492,127.044 C271.02,127.044 273.756,128.916 273.756,134.712 C273.756,140.544 271.02,142.524 267.852,142.524 L267.852,142.524 Z M281.424,121.428 L283.224,121.428 L283.224,118.8 L281.424,118.8 L281.424,121.428 Z M281.568,144 L283.08,144 L283.08,126 L281.568,126 L281.568,144 Z M288.156,135.036 C288.156,140.76 292.368,144.432 297.444,144.432 C301.908,144.432 304.248,141.624 304.248,141.624 L303.456,140.364 C303.456,140.364 301.404,142.956 297.444,142.956 C293.232,142.956 289.74,139.824 289.74,135.036 C289.74,130.176 293.232,127.044 297.444,127.044 C300.9,127.044 302.952,129.348 302.952,129.348 L303.888,128.124 C303.888,128.124 301.728,125.568 297.444,125.568 C292.44,125.568 288.156,129.312 288.156,135.036 L288.156,135.036 Z M307.776,139.212 C307.776,142.812 310.98,144.432 313.896,144.432 C318.576,144.432 320.232,140.004 320.196,140.004 L320.268,140.004 C320.268,140.004 320.124,140.652 320.124,141.624 L320.124,144 L321.636,144 L321.636,132.372 C321.636,127.872 319.404,125.568 315.264,125.568 C311.34,125.568 309.18,127.548 309.18,127.548 L310.044,128.772 C310.044,128.772 312.06,127.044 315.192,127.044 C318.072,127.044 320.124,128.412 320.124,132.408 L320.124,133.02 L318.936,133.02 C315.732,133.02 307.776,133.092 307.776,139.212 L307.776,139.212 Z M309.36,139.104 C309.36,134.424 315.912,134.424 318.972,134.424 L320.124,134.424 L320.124,135.396 C320.124,138.96 317.892,143.028 313.968,143.028 C310.908,143.028 309.36,141.012 309.36,139.104 L309.36,139.104 Z M327.54,140.364 C327.54,143.748 330.024,144.144 331.068,144.144 C331.392,144.144 331.716,144.072 331.716,144.072 L331.716,142.668 C331.716,142.668 331.464,142.704 331.176,142.704 C330.348,142.704 329.052,142.416 329.052,139.896 L329.052,118.8 L327.54,118.8 L327.54,140.364 Z M359.292,120.996 L359.364,120.996 C359.364,120.996 359.868,123.372 360.336,124.992 L365.664,144 L367.608,144 L374.412,118.8 L372.792,118.8 L367.284,139.32 C366.96,140.544 366.672,142.02 366.672,142.02 L366.6,142.02 C366.564,142.02 366.276,140.58 365.916,139.32 L360.156,118.8 L358.428,118.8 L352.668,139.32 C352.308,140.58 352.02,142.02 351.984,142.02 L351.912,142.02 C351.912,142.02 351.624,140.544 351.3,139.32 L345.972,118.8 L344.352,118.8 L350.976,144 L352.92,144 L358.248,124.992 C358.716,123.372 359.22,120.996 359.22,120.996 L359.292,120.996 Z M377.724,134.892 C377.724,140.256 381.9,144.432 387.048,144.432 C392.196,144.432 396.372,140.256 396.372,134.892 C396.372,129.636 392.196,125.568 387.048,125.568 C381.9,125.568 377.724,129.636 377.724,134.892 L377.724,134.892 Z M379.308,134.892 C379.308,130.428 382.764,127.044 387.048,127.044 C391.332,127.044 394.788,130.428 394.788,134.892 C394.788,139.464 391.332,142.956 387.048,142.956 C382.764,142.956 379.308,139.464 379.308,134.892 L379.308,134.892 Z M401.376,144 L402.888,144 L402.888,136.224 C402.888,135.036 403.032,133.704 403.428,132.444 C404.22,129.78 405.984,127.404 408.792,127.404 C409.188,127.404 409.62,127.476 409.62,127.476 L409.62,125.964 C409.62,125.964 409.116,125.856 408.576,125.856 C405.732,125.856 403.716,128.124 402.816,130.896 L402.744,130.896 C402.744,130.896 402.888,130.248 402.888,129.42 L402.888,126 L401.376,126 L401.376,144 Z M413.364,140.364 C413.364,143.748 415.848,144.144 416.892,144.144 C417.216,144.144 417.54,144.072 417.54,144.072 L417.54,142.668 C417.54,142.668 417.288,142.704 417,142.704 C416.172,142.704 414.876,142.416 414.876,139.896 L414.876,118.8 L413.364,118.8 L413.364,140.364 Z M420.636,135 C420.636,140.58 423.588,144.432 428.412,144.432 C433.38,144.432 434.928,140.364 434.928,140.364 L435,140.364 C435,140.364 434.856,140.904 434.856,141.732 L434.856,144 L436.368,144 L436.368,118.8 L434.856,118.8 L434.856,128.16 C434.856,128.988 435,129.636 435,129.636 L434.928,129.636 C434.928,129.636 433.236,125.568 428.7,125.568 C423.984,125.568 420.636,129.276 420.636,135 L420.636,135 Z M422.22,135 C422.22,129.96 425.1,127.044 428.628,127.044 C432.84,127.044 434.892,130.968 434.892,134.964 C434.892,140.616 431.796,142.956 428.484,142.956 C424.812,142.956 422.22,139.86 422.22,135 L422.22,135 Z" id="Technological-World-Copy" fill="#FFFFFF"></path>
            <mask id="mask-2" fill="white">
                <use xlink:href="#path-1"></use>
            </mask>
            <use id="Mask" fill="#009EFF" xlink:href="#path-1"></use>
            <polygon id="Stroke-3" fill="#FFFFFF" mask="url(#mask-2)" points="82.4623846 101.612406 84.5603878 101.612406 84.5603878 0.1215 82.4623846 0.1215"></polygon>
            <polygon id="Stroke-4" fill="#FFFFFF" mask="url(#mask-2)" points="65.6783588 101.612406 67.7763621 101.612406 67.7763621 0.1215 65.6783588 0.1215"></polygon>
            <polygon id="Stroke-5" fill="#FFFFFF" mask="url(#mask-2)" points="47.8453315 101.612406 49.9433347 101.612406 49.9433347 0.1215 47.8453315 0.1215"></polygon>
            <polygon id="Stroke-6" fill="#FFFFFF" mask="url(#mask-2)" points="32.1103073 101.612406 34.2083105 101.612406 34.2083105 0.1215 32.1103073 0.1215"></polygon>
        </g>
    </g>
</svg>