<?xml version="1.0" encoding="UTF-8" standalone="no"?>
<svg width="446px" height="162px" viewBox="0 0 446 162" version="1.1" xmlns="http://www.w3.org/2000/svg" xmlns:xlink="http://www.w3.org/1999/xlink">
    <!-- Generator: Sketch 42 (36781) - http://www.bohemiancoding.com/sketch -->
    <title>logo</title>
    <desc>Created with Sketch.</desc>
    <defs>
        <path d="M57.5772053,100.695856 C80.9375637,100.695856 98.5134525,82.5637677 98.5134525,59.314649 C98.5134525,36.7329692 80.9375637,19.0458406 57.5772053,19.0458406 C34.2168468,19.0458406 16.640958,36.7329692 16.640958,59.314649 C16.640958,82.5637677 34.2168468,100.695856 57.5772053,100.695856 Z M31.6583313,59.314649 C31.6583313,43.7410767 43.3385106,31.8384179 57.5772053,31.8384179 C71.8159,31.8384179 83.4960792,43.7410767 83.4960792,59.314649 C83.4960792,75.5556602 71.8159,87.9032782 57.5772053,87.9032782 C43.3385106,87.9032782 31.6583313,75.5556602 31.6583313,59.314649 L31.6583313,59.314649 Z" id="path-1"></path>
    </defs>
    <g id="Page-1" stroke="none" stroke-width="1" fill="none" fill-rule="evenodd">
        <g id="logo">
            <path d="M103.741723,99.3609779 L136.891184,99.3609779 L136.891184,88.4594772 L127.769521,88.4594772 L127.769521,69.1037516 L135.000108,69.1037516 C139.56094,69.1037516 141.007057,70.1049099 142.675654,73.1083845 L153.910874,93.4652684 C156.35815,98.0261002 158.360466,99.3609779 164.923614,99.3609779 L174.156518,99.3609779 L174.156518,88.4594772 L171.598003,88.4594772 C168.928247,88.4594772 167.37089,87.9032782 166.258492,85.9009618 L157.136828,69.4374711 C155.579471,66.5452362 153.243435,65.3215984 153.243435,65.3215984 L153.243435,65.0991188 C162.365099,61.9844043 168.149569,54.1976181 168.149569,43.1848777 C168.149569,32.0608975 162.365099,24.9415501 153.577155,22.0493153 C149.127563,20.7144376 144.344251,20.3807182 138.559781,20.3807182 L103.741723,20.3807182 L103.741723,31.3934587 L113.197106,31.3934587 L113.197106,88.4594772 L103.741723,88.4594772 L103.741723,99.3609779 Z M127.769521,57.4235724 L127.769521,32.0608975 L138.448542,32.0608975 C142.119455,32.0608975 145.12293,32.5058567 147.347726,33.5070149 C151.686078,35.2868517 153.577155,39.2914846 153.577155,44.4085155 C153.577155,52.8627405 148.571364,57.4235724 140.895817,57.4235724 L127.769521,57.4235724 Z M182.388263,99.3609779 L215.982684,99.3609779 L215.982684,88.4594772 L206.416061,88.4594772 L206.416061,31.3934587 L215.982684,31.3934587 L215.982684,20.3807182 L182.388263,20.3807182 L182.388263,31.3934587 L191.843647,31.3934587 L191.843647,88.4594772 L182.388263,88.4594772 L182.388263,99.3609779 Z M227.329144,99.3609779 L287.176157,99.3609779 L287.176157,75.4444204 L274.717299,75.4444204 L274.717299,87.6807986 L251.356941,87.6807986 L251.356941,32.0608975 L260.923564,32.0608975 L260.923564,20.3807182 L227.329144,20.3807182 L227.329144,32.0608975 L236.784527,32.0608975 L236.784527,88.4594772 L227.329144,88.4594772 L227.329144,99.3609779 Z M295.630382,99.3609779 L355.477396,99.3609779 L355.477396,75.4444204 L343.018538,75.4444204 L343.018538,87.6807986 L319.65818,87.6807986 L319.65818,32.0608975 L329.224803,32.0608975 L329.224803,20.3807182 L295.630382,20.3807182 L295.630382,32.0608975 L305.085765,32.0608975 L305.085765,88.4594772 L295.630382,88.4594772 L295.630382,99.3609779 Z M359.593269,99.3609779 L389.183056,99.3609779 L389.183056,88.4594772 L381.39627,88.4594772 L386.290821,73.6645835 L411.208537,73.6645835 L416.103088,88.4594772 L408.316302,88.4594772 L408.316302,99.3609779 L438.017329,99.3609779 L438.017329,88.4594772 L430.786742,88.4594772 L407.092664,20.3807182 L390.517934,20.3807182 L366.823856,88.4594772 L359.593269,88.4594772 L359.593269,99.3609779 Z M389.628015,62.3181237 L397.192322,39.9589234 C398.30472,36.0655304 398.638439,33.0620557 398.638439,33.0620557 L398.972159,33.0620557 C398.972159,33.0620557 399.194638,36.0655304 400.418276,39.9589234 L407.871343,62.3181237 L389.628015,62.3181237 Z" id="RILLA" fill="#283360"></path>
            <path d="M113.376733,144.015502 L114.921559,144.015502 L114.921559,120.304224 L124.298291,120.304224 L124.298291,118.867177 L104,118.867177 L104,120.304224 L113.376733,120.304224 L113.376733,144.015502 Z M126.489788,135.069884 C126.489788,140.782146 130.693151,144.446616 135.758743,144.446616 C139.63877,144.446616 142.153602,141.96771 142.153602,141.96771 L141.3273,140.710294 C141.3273,140.710294 139.207656,142.973643 135.758743,142.973643 C131.591306,142.973643 128.07054,139.99177 128.07054,134.782474 L142.476938,134.782474 C142.476938,134.782474 142.54879,134.207655 142.54879,133.812467 C142.54879,129.4654 140.10581,125.621298 135.21985,125.621298 C130.621299,125.621298 126.489788,128.998359 126.489788,135.069884 L126.489788,135.069884 Z M128.178319,133.381353 C128.82499,129.17799 131.878715,127.022419 135.183924,127.022419 C138.165797,127.022419 140.788408,128.998359 140.968039,133.381353 L128.178319,133.381353 Z M146.356965,135.069884 C146.356965,140.782146 150.560328,144.446616 155.62592,144.446616 C160.080766,144.446616 162.415968,141.644374 162.415968,141.644374 L161.625592,140.386958 C161.625592,140.386958 159.577799,142.973643 155.62592,142.973643 C151.422557,142.973643 147.937717,139.848066 147.937717,135.069884 C147.937717,130.219849 151.422557,127.094272 155.62592,127.094272 C159.074833,127.094272 161.122625,129.393547 161.122625,129.393547 L162.056706,128.172057 C162.056706,128.172057 159.901135,125.621298 155.62592,125.621298 C150.632181,125.621298 146.356965,129.357621 146.356965,135.069884 L146.356965,135.069884 Z M167.409707,144.015502 L168.918606,144.015502 L168.918606,135.249515 C168.918606,134.387286 168.990458,133.560984 169.206016,132.806534 C170.10417,129.4654 173.086043,127.094272 176.463104,127.094272 C180.486836,127.094272 180.882024,130.040219 180.882024,133.165796 L180.882024,144.015502 L182.390923,144.015502 L182.390923,132.626903 C182.390923,128.387614 181.133507,125.621298 176.463104,125.621298 C171.972331,125.621298 169.457499,128.998359 168.846754,130.68689 L168.774901,130.68689 C168.774901,130.68689 168.918606,130.040219 168.918606,129.213916 L168.918606,118.867177 L167.409707,118.867177 L167.409707,144.015502 Z M188.462448,144.015502 L189.971347,144.015502 L189.971347,135.249515 C189.971347,134.387286 190.0432,133.560984 190.258757,132.806534 C191.156911,129.4654 194.138784,127.094272 197.515845,127.094272 C201.539577,127.094272 201.934765,130.040219 201.934765,133.165796 L201.934765,144.015502 L203.443664,144.015502 L203.443664,132.626903 C203.443664,128.387614 202.186248,125.621298 197.515845,125.621298 C193.025072,125.621298 190.51024,128.998359 189.899495,130.68689 L189.827643,130.68689 C189.827643,130.68689 189.971347,130.040219 189.971347,129.213916 L189.971347,126.052413 L188.462448,126.052413 L188.462448,144.015502 Z M208.18592,134.926179 C208.18592,140.27918 212.353357,144.446616 217.490801,144.446616 C222.628244,144.446616 226.795681,140.27918 226.795681,134.926179 C226.795681,129.680957 222.628244,125.621298 217.490801,125.621298 C212.353357,125.621298 208.18592,129.680957 208.18592,134.926179 L208.18592,134.926179 Z M209.766672,134.926179 C209.766672,130.471333 213.215585,127.094272 217.490801,127.094272 C221.766016,127.094272 225.214929,130.471333 225.214929,134.926179 C225.214929,139.488804 221.766016,142.973643 217.490801,142.973643 C213.215585,142.973643 209.766672,139.488804 209.766672,134.926179 L209.766672,134.926179 Z M231.609789,140.386958 C231.609789,143.764019 234.088695,144.159207 235.130555,144.159207 C235.45389,144.159207 235.777226,144.087355 235.777226,144.087355 L235.777226,142.686234 C235.777226,142.686234 235.525743,142.72216 235.238333,142.72216 C234.412031,142.72216 233.118689,142.43475 233.118689,139.919918 L233.118689,118.867177 L231.609789,118.867177 L231.609789,140.386958 Z M238.723173,134.926179 C238.723173,140.27918 242.890609,144.446616 248.028053,144.446616 C253.165497,144.446616 257.332934,140.27918 257.332934,134.926179 C257.332934,129.680957 253.165497,125.621298 248.028053,125.621298 C242.890609,125.621298 238.723173,129.680957 238.723173,134.926179 L238.723173,134.926179 Z M240.303925,134.926179 C240.303925,130.471333 243.752838,127.094272 248.028053,127.094272 C252.303268,127.094272 255.752182,130.471333 255.752182,134.926179 C255.752182,139.488804 252.303268,142.973643 248.028053,142.973643 C243.752838,142.973643 240.303925,139.488804 240.303925,134.926179 L240.303925,134.926179 Z M263.440384,148.82961 L262.72186,150.158879 C264.482243,151.057033 266.386331,151.56 268.362271,151.56 C272.637486,151.56 276.589366,149.404429 276.589366,143.907724 L276.589366,126.052413 L275.080466,126.052413 L275.080466,128.459467 C275.080466,128.890581 275.188245,129.142064 275.188245,129.142064 L275.116392,129.142064 C275.116392,129.142064 273.966755,125.621298 268.865237,125.621298 C264.194834,125.621298 261.141109,129.142064 261.141109,134.746548 C261.141109,140.351032 264.446317,144.015502 269.11672,144.015502 C272.098593,144.015502 274.074533,142.542529 275.152319,140.351032 L275.224171,140.351032 C275.224171,140.351032 275.080466,140.997703 275.080466,141.824005 L275.080466,143.907724 C275.080466,148.254791 272.098593,150.087027 268.254492,150.087027 C265.667807,150.087027 263.440384,148.82961 263.440384,148.82961 L263.440384,148.82961 Z M269.224499,142.542529 C265.380398,142.542529 262.72186,139.596582 262.72186,134.746548 C262.72186,129.896514 265.021136,127.094272 268.865237,127.094272 C272.386003,127.094272 275.116392,128.962433 275.116392,134.746548 C275.116392,140.566589 272.386003,142.542529 269.224499,142.542529 L269.224499,142.542529 Z M282.768669,121.489788 L284.564978,121.489788 L284.564978,118.867177 L282.768669,118.867177 L282.768669,121.489788 Z M282.912373,144.015502 L284.421273,144.015502 L284.421273,126.052413 L282.912373,126.052413 L282.912373,144.015502 Z M289.486864,135.069884 C289.486864,140.782146 293.690227,144.446616 298.755818,144.446616 C303.210665,144.446616 305.545866,141.644374 305.545866,141.644374 L304.75549,140.386958 C304.75549,140.386958 302.707698,142.973643 298.755818,142.973643 C294.552455,142.973643 291.067616,139.848066 291.067616,135.069884 C291.067616,130.219849 294.552455,127.094272 298.755818,127.094272 C302.204732,127.094272 304.252524,129.393547 304.252524,129.393547 L305.186604,128.172057 C305.186604,128.172057 303.031034,125.621298 298.755818,125.621298 C293.762079,125.621298 289.486864,129.357621 289.486864,135.069884 L289.486864,135.069884 Z M309.066632,139.23732 C309.066632,142.829938 312.264062,144.446616 315.174082,144.446616 C319.844486,144.446616 321.49709,140.027696 321.461164,140.027696 L321.533016,140.027696 C321.533016,140.027696 321.389311,140.674368 321.389311,141.644374 L321.389311,144.015502 L322.898211,144.015502 L322.898211,132.411346 C322.898211,127.920574 320.670788,125.621298 316.539277,125.621298 C312.623324,125.621298 310.467753,127.597238 310.467753,127.597238 L311.329981,128.818728 C311.329981,128.818728 313.341847,127.094272 316.467425,127.094272 C319.341519,127.094272 321.389311,128.459467 321.389311,132.447273 L321.389311,133.058018 L320.203747,133.058018 C317.006317,133.058018 309.066632,133.12987 309.066632,139.23732 L309.066632,139.23732 Z M310.647384,139.129542 C310.647384,134.459139 317.185948,134.459139 320.239674,134.459139 L321.389311,134.459139 L321.389311,135.429145 C321.389311,138.985837 319.161888,143.045495 315.245935,143.045495 C312.192209,143.045495 310.647384,141.033629 310.647384,139.129542 L310.647384,139.129542 Z M328.790104,140.386958 C328.790104,143.764019 331.269011,144.159207 332.31087,144.159207 C332.634205,144.159207 332.957541,144.087355 332.957541,144.087355 L332.957541,142.686234 C332.957541,142.686234 332.706058,142.72216 332.418648,142.72216 C331.592346,142.72216 330.299004,142.43475 330.299004,139.919918 L330.299004,118.867177 L328.790104,118.867177 L328.790104,140.386958 Z M360.476995,121.058674 L360.548847,121.058674 C360.548847,121.058674 361.051813,123.429802 361.518854,125.04648 L366.835928,144.015502 L368.775942,144.015502 L375.56599,118.867177 L373.949312,118.867177 L368.452606,139.345099 C368.129271,140.566589 367.841861,142.039562 367.841861,142.039562 L367.770009,142.039562 C367.734083,142.039562 367.446673,140.602515 367.087412,139.345099 L361.339223,118.867177 L359.614766,118.867177 L353.866578,139.345099 C353.507316,140.602515 353.219906,142.039562 353.18398,142.039562 L353.112128,142.039562 C353.112128,142.039562 352.824718,140.566589 352.501383,139.345099 L347.184308,118.867177 L345.56763,118.867177 L352.178047,144.015502 L354.118061,144.015502 L359.435135,125.04648 C359.902176,123.429802 360.405142,121.058674 360.405142,121.058674 L360.476995,121.058674 Z M378.871198,134.926179 C378.871198,140.27918 383.038635,144.446616 388.176079,144.446616 C393.313522,144.446616 397.480959,140.27918 397.480959,134.926179 C397.480959,129.680957 393.313522,125.621298 388.176079,125.621298 C383.038635,125.621298 378.871198,129.680957 378.871198,134.926179 L378.871198,134.926179 Z M380.45195,134.926179 C380.45195,130.471333 383.900863,127.094272 388.176079,127.094272 C392.451294,127.094272 395.900207,130.471333 395.900207,134.926179 C395.900207,139.488804 392.451294,142.973643 388.176079,142.973643 C383.900863,142.973643 380.45195,139.488804 380.45195,134.926179 L380.45195,134.926179 Z M402.474698,144.015502 L403.983598,144.015502 L403.983598,136.255448 C403.983598,135.069884 404.127302,133.740615 404.52249,132.483199 C405.312866,129.824661 407.073249,127.453534 409.875491,127.453534 C410.270679,127.453534 410.701793,127.525386 410.701793,127.525386 L410.701793,126.016486 C410.701793,126.016486 410.198827,125.908708 409.659934,125.908708 C406.821766,125.908708 404.8099,128.172057 403.911745,130.938373 L403.839893,130.938373 C403.839893,130.938373 403.983598,130.291702 403.983598,129.4654 L403.983598,126.052413 L402.474698,126.052413 L402.474698,144.015502 Z M414.438116,140.386958 C414.438116,143.764019 416.917022,144.159207 417.958881,144.159207 C418.282217,144.159207 418.605553,144.087355 418.605553,144.087355 L418.605553,142.686234 C418.605553,142.686234 418.354069,142.72216 418.06666,142.72216 C417.240358,142.72216 415.947015,142.43475 415.947015,139.919918 L415.947015,118.867177 L414.438116,118.867177 L414.438116,140.386958 Z M421.695204,135.033957 C421.695204,140.602515 424.641151,144.446616 429.455259,144.446616 C434.413072,144.446616 435.957897,140.386958 435.957897,140.386958 L436.02975,140.386958 C436.02975,140.386958 435.886045,140.925851 435.886045,141.752153 L435.886045,144.015502 L437.394945,144.015502 L437.394945,118.867177 L435.886045,118.867177 L435.886045,128.207983 C435.886045,129.034286 436.02975,129.680957 436.02975,129.680957 L435.957897,129.680957 C435.957897,129.680957 434.269367,125.621298 429.742668,125.621298 C425.036339,125.621298 421.695204,129.321695 421.695204,135.033957 L421.695204,135.033957 Z M423.275956,135.033957 C423.275956,130.004292 426.15005,127.094272 429.670816,127.094272 C433.874179,127.094272 435.921971,131.010225 435.921971,134.998031 C435.921971,140.638441 432.83232,142.973643 429.527111,142.973643 C425.862641,142.973643 423.275956,139.883992 423.275956,135.033957 L423.275956,135.033957 Z" id="Technological-World-Copy" fill="#293460"></path>
            <mask id="mask-2" fill="white">
                <use xlink:href="#path-1"></use>
            </mask>
            <use id="Mask" fill="#293460" xlink:href="#path-1"></use>
            <polygon id="Stroke-3" fill="#FFFFFF" fill-rule="nonzero" mask="url(#mask-2)" points="82.4623846 101.612406 84.5603878 101.612406 84.5603878 0.1215 82.4623846 0.1215"></polygon>
            <polygon id="Stroke-4" fill="#FFFFFF" fill-rule="nonzero" mask="url(#mask-2)" points="65.6783588 101.612406 67.7763621 101.612406 67.7763621 0.1215 65.6783588 0.1215"></polygon>
            <polygon id="Stroke-5" fill="#FFFFFF" fill-rule="nonzero" mask="url(#mask-2)" points="47.8453315 101.612406 49.9433347 101.612406 49.9433347 0.1215 47.8453315 0.1215"></polygon>
            <polygon id="Stroke-6" fill="#FFFFFF" fill-rule="nonzero" mask="url(#mask-2)" points="32.1103073 101.612406 34.2083105 101.612406 34.2083105 0.1215 32.1103073 0.1215"></polygon>
        </g>
    </g>
</svg>