<?xml version="1.0" encoding="UTF-8" standalone="no"?>
<svg width="446px" height="162px" viewBox="0 0 446 162" version="1.1" xmlns="http://www.w3.org/2000/svg" xmlns:xlink="http://www.w3.org/1999/xlink">
    <!-- Generator: Sketch 39.1 (31720) - http://www.bohemiancoding.com/sketch -->
    <title>logo</title>
    <desc>Created with Sketch.</desc>
    <defs>
        <path d="M16.640958,59.314649 C16.640958,82.5637677 34.2168468,100.695856 57.5772053,100.695856 C80.9375637,100.695856 98.5134525,82.5637677 98.5134525,59.314649 C98.5134525,36.7329692 80.9375637,19.0458406 57.5772053,19.0458406 C34.2168468,19.0458406 16.640958,36.7329692 16.640958,59.314649 L16.640958,59.314649 Z M31.6583313,59.314649 C31.6583313,43.7410767 43.3385106,31.8384179 57.5772053,31.8384179 C71.8159,31.8384179 83.4960792,43.7410767 83.4960792,59.314649 C83.4960792,75.5556602 71.8159,87.9032782 57.5772053,87.9032782 C43.3385106,87.9032782 31.6583313,75.5556602 31.6583313,59.314649 L31.6583313,59.314649 Z" id="path-1"></path>
    </defs>
    <g id="Page-1" stroke="none" stroke-width="1" fill="none" fill-rule="evenodd">
        <g id="logo">
            <path d="M103.741723,99.3609779 L136.891184,99.3609779 L136.891184,88.4594772 L127.769521,88.4594772 L127.769521,69.1037516 L135.000108,69.1037516 C139.56094,69.1037516 141.007057,70.1049099 142.675654,73.1083845 L153.910874,93.4652684 C156.35815,98.0261002 158.360466,99.3609779 164.923614,99.3609779 L174.156518,99.3609779 L174.156518,88.4594772 L171.598003,88.4594772 C168.928247,88.4594772 167.37089,87.9032782 166.258492,85.9009618 L157.136828,69.4374711 C155.579471,66.5452362 153.243435,65.3215984 153.243435,65.3215984 L153.243435,65.0991188 C162.365099,61.9844043 168.149569,54.1976181 168.149569,43.1848777 C168.149569,32.0608975 162.365099,24.9415501 153.577155,22.0493153 C149.127563,20.7144376 144.344251,20.3807182 138.559781,20.3807182 L103.741723,20.3807182 L103.741723,31.3934587 L113.197106,31.3934587 L113.197106,88.4594772 L103.741723,88.4594772 L103.741723,99.3609779 Z M127.769521,57.4235724 L127.769521,32.0608975 L138.448542,32.0608975 C142.119455,32.0608975 145.12293,32.5058567 147.347726,33.5070149 C151.686078,35.2868517 153.577155,39.2914846 153.577155,44.4085155 C153.577155,52.8627405 148.571364,57.4235724 140.895817,57.4235724 L127.769521,57.4235724 Z M182.388263,99.3609779 L215.982684,99.3609779 L215.982684,88.4594772 L206.416061,88.4594772 L206.416061,31.3934587 L215.982684,31.3934587 L215.982684,20.3807182 L182.388263,20.3807182 L182.388263,31.3934587 L191.843647,31.3934587 L191.843647,88.4594772 L182.388263,88.4594772 L182.388263,99.3609779 Z M227.329144,99.3609779 L287.176157,99.3609779 L287.176157,75.4444204 L274.717299,75.4444204 L274.717299,87.6807986 L251.356941,87.6807986 L251.356941,32.0608975 L260.923564,32.0608975 L260.923564,20.3807182 L227.329144,20.3807182 L227.329144,32.0608975 L236.784527,32.0608975 L236.784527,88.4594772 L227.329144,88.4594772 L227.329144,99.3609779 Z M295.630382,99.3609779 L355.477396,99.3609779 L355.477396,75.4444204 L343.018538,75.4444204 L343.018538,87.6807986 L319.65818,87.6807986 L319.65818,32.0608975 L329.224803,32.0608975 L329.224803,20.3807182 L295.630382,20.3807182 L295.630382,32.0608975 L305.085765,32.0608975 L305.085765,88.4594772 L295.630382,88.4594772 L295.630382,99.3609779 Z M359.593269,99.3609779 L389.183056,99.3609779 L389.183056,88.4594772 L381.39627,88.4594772 L386.290821,73.6645835 L411.208537,73.6645835 L416.103088,88.4594772 L408.316302,88.4594772 L408.316302,99.3609779 L438.017329,99.3609779 L438.017329,88.4594772 L430.786742,88.4594772 L407.092664,20.3807182 L390.517934,20.3807182 L366.823856,88.4594772 L359.593269,88.4594772 L359.593269,99.3609779 Z M389.628015,62.3181237 L397.192322,39.9589234 C398.30472,36.0655304 398.638439,33.0620557 398.638439,33.0620557 L398.972159,33.0620557 C398.972159,33.0620557 399.194638,36.0655304 400.418276,39.9589234 L407.871343,62.3181237 L389.628015,62.3181237 Z" id="RILLA" fill="#283360"></path>
            <text id="Technological-World-Copy" opacity="0.900000036" font-family="MuseoSans-100, Museo Sans" font-size="36" font-weight="300" fill="#FFFFFF">
                <tspan x="102" y="144">Technological World </tspan>
            </text>
            <mask id="mask-2" fill="white">
                <use xlink:href="#path-1"></use>
            </mask>
            <use id="Mask" fill="#009EFF" xlink:href="#path-1"></use>
            <polygon id="Stroke-3" fill="#FFFFFF" mask="url(#mask-2)" points="82.4623846 101.612406 84.5603878 101.612406 84.5603878 0.1215 82.4623846 0.1215"></polygon>
            <polygon id="Stroke-4" fill="#FFFFFF" mask="url(#mask-2)" points="65.6783588 101.612406 67.7763621 101.612406 67.7763621 0.1215 65.6783588 0.1215"></polygon>
            <polygon id="Stroke-5" fill="#FFFFFF" mask="url(#mask-2)" points="47.8453315 101.612406 49.9433347 101.612406 49.9433347 0.1215 47.8453315 0.1215"></polygon>
            <polygon id="Stroke-6" fill="#FFFFFF" mask="url(#mask-2)" points="32.1103073 101.612406 34.2083105 101.612406 34.2083105 0.1215 32.1103073 0.1215"></polygon>
        </g>
    </g>
</svg>