<?xml version="1.0" encoding="UTF-8" standalone="no"?>
<svg width="587px" height="346px" viewBox="0 0 587 346" version="1.1" xmlns="http://www.w3.org/2000/svg" xmlns:xlink="http://www.w3.org/1999/xlink">
    <!-- Generator: Sketch 42 (36781) - http://www.bohemiancoding.com/sketch -->
    <title>header-bg-headline</title>
    <desc>Created with Sketch.</desc>
    <defs></defs>
    <g id="Page-1" stroke="none" stroke-width="1" fill="none" fill-rule="evenodd">
        <g id="header-bg-headline" fill="#293460">
            <path d="M267.376477,135.90712 L270.318416,142.422392 L273.698718,136.132419 L280.800054,135.357596 L275.857398,130.193332 L277.306087,123.197799 L270.868821,126.295829 L264.66222,122.749338 L265.628382,129.827181 L260.343017,134.628756 L267.376477,135.90712 Z M270.475023,124.265786 L271.404804,124.298613 L270.948538,124.0379 L270.475023,124.265786 Z M263.893963,128.70076 L263.575571,129.576181 L263.504384,129.05468 L263.893963,128.70076 Z M256,135.872158 L263.504384,129.05468 L262.131869,119 L270.948538,124.0379 L280.085138,119.640775 L278.028971,129.56974 L285.050169,136.905738 L274.962114,138.00644 L270.162619,146.937209 L265.985787,137.687122 L256,135.872158 Z" id="Star-2" fill-rule="nonzero"></path>
            <path d="M371.376477,309.90712 L374.318416,316.422392 L377.698718,310.132419 L384.800054,309.357596 L379.857398,304.193332 L381.306087,297.197799 L374.868821,300.295829 L368.66222,296.749338 L369.628382,303.827181 L364.343017,308.628756 L371.376477,309.90712 Z M374.475023,298.265786 L375.404804,298.298613 L374.948538,298.0379 L374.475023,298.265786 Z M367.893963,302.70076 L367.575571,303.576181 L367.504384,303.05468 L367.893963,302.70076 Z M360,309.872158 L367.504384,303.05468 L366.131869,293 L374.948538,298.0379 L384.085138,293.640775 L382.028971,303.56974 L389.050169,310.905738 L378.962114,312.00644 L374.162619,320.937209 L369.985787,311.687122 L360,309.872158 Z" id="Star-2-Copy-4" fill-rule="nonzero" transform="translate(374.525084, 306.968605) rotate(34.000000) translate(-374.525084, -306.968605) "></path>
            <path d="M179.414787,276.798224 L182.356726,283.313496 L185.737028,277.023523 L192.838364,276.2487 L187.895707,271.084436 L189.344397,264.088903 L182.907131,267.186933 L176.70053,263.640443 L177.666692,270.718285 L172.381327,275.51986 L179.414787,276.798224 Z M182.513333,265.15689 L183.443114,265.189717 L182.986848,264.929004 L182.513333,265.15689 Z M175.932273,269.591865 L175.613881,270.467285 L175.542694,269.945784 L175.932273,269.591865 Z M168.03831,276.763262 L175.542694,269.945784 L174.170179,259.891104 L182.986848,264.929004 L192.123448,260.531879 L190.067281,270.460844 L197.088479,277.796842 L187.000424,278.897544 L182.200929,287.828313 L178.024097,278.578226 L168.03831,276.763262 Z" id="Star-2-Copy-3" fill-rule="nonzero" transform="translate(182.563394, 273.859709) rotate(30.000000) translate(-182.563394, -273.859709) "></path>
            <path d="M431.234305,215.51181 L432.836393,219.059823 L434.6772,215.634501 L438.544365,215.212556 L435.852749,212.400259 L436.64166,208.590711 L433.136126,210.277801 L429.756206,208.346494 L430.282347,212.200865 L427.404103,214.815652 L431.234305,215.51181 Z M432.921676,209.172304 L433.428006,209.19018 L433.179538,209.048204 L432.921676,209.172304 Z M429.337837,211.587452 L429.164451,212.064179 L429.125684,211.780185 L429.337837,211.587452 Z M425.039032,215.492771 L429.125684,211.780185 L428.378256,206.304721 L433.179538,209.048204 L438.155044,206.653668 L437.03532,212.060671 L440.858844,216.055626 L435.365206,216.655034 L432.751551,221.518451 L430.476979,216.481143 L425.039032,215.492771 Z" id="Star-2-Copy-2" fill-rule="nonzero" transform="translate(432.948938, 213.911586) rotate(-40.000000) translate(-432.948938, -213.911586) "></path>
            <path d="M110.682266,137.81014 L122.528936,144.029431 L120.266467,130.857015 L129.848866,121.529789 L116.606157,119.608251 L110.682266,107.622233 L104.758375,119.608251 L91.5156657,121.529789 L101.098065,130.857015 L98.8355964,144.029431 L110.682266,137.81014 Z M103.951126,117.704439 L103.198238,118.251002 L103.431073,117.7799 L103.951126,117.704439 Z M96.1787673,147.683074 L98.9487328,131.55594 L87.2133984,120.133109 L103.431073,117.7799 L110.682266,103.108306 L117.933459,117.7799 L134.151134,120.133109 L122.415799,131.55594 L125.185765,147.683074 L110.682266,140.068995 L96.1787673,147.683074 Z" id="Star-2-Copy" fill-rule="nonzero"></path>
            <polygon id="Line" fill-rule="nonzero" points="311.603623 94.7433666 301.236267 112.700153 302.968318 113.700153 313.335674 95.7433666"></polygon>
            <polygon id="Line-Copy-3" fill-rule="nonzero" points="482.542314 86.8992083 492.90967 104.855995 494.641721 103.855995 484.274365 85.8992083"></polygon>
            <polygon id="Line-Copy" fill-rule="nonzero" points="287.478951 183.654213 304.891663 194.946054 305.979849 193.268004 288.567137 181.976164"></polygon>
            <polygon id="Line-Copy" fill-rule="nonzero" transform="translate(276.729400, 288.461109) rotate(60.000000) translate(-276.729400, -288.461109) " points="267.478951 283.654213 284.891663 294.946054 285.979849 293.268004 268.567137 281.976164"></polygon>
            <polygon id="Line-Copy-2" fill-rule="nonzero" points="100.232162 183.329288 117.644874 172.037447 116.556688 170.359397 99.1439757 181.651238"></polygon>
            <g id="Group-4" transform="translate(154.000000, 101.000000)">
                <path d="M24.3656562,22.1896967 L28.2332555,22.1896967 C30.9997011,22.1896967 33.2354374,19.9547764 33.2354374,17.1939239 L33.2354374,7.7630461 C33.2354374,5.00616295 30.9934849,2.76727327 28.2284106,2.76727327 L7.20058444,2.76727327 C4.43664852,2.76727327 2.19355767,5.00600695 2.19355767,7.7630461 L2.19355767,17.1939239 C2.19355767,19.9515942 4.43078737,22.1896967 7.18828288,22.1896967 L19.4047038,22.1896967 L23.2623126,25.7315746 L24.3656562,22.1896967 Z M0.193557669,7.7630461 C0.193557669,3.89938745 3.33412945,0.767273267 7.20058444,0.767273267 L28.2284106,0.767273267 C32.0982846,0.767273267 35.2354374,3.90182163 35.2354374,7.7630461 L35.2354374,17.1939239 C35.2354374,21.0575825 32.1060347,24.1896967 28.2332555,24.1896967 L25.837423,24.1896967 L24.2335191,29.3384389 L18.6258066,24.1896967 L7.18828288,24.1896967 C3.32520282,24.1896967 0.193557669,21.0551483 0.193557669,17.1939239 L0.193557669,7.7630461 Z" id="Rectangle-2" fill-rule="nonzero"></path>
                <ellipse id="Oval-2" cx="18.4634413" cy="12.0164549" rx="2.28533998" ry="2.26668614"></ellipse>
                <ellipse id="Oval-2-Copy" cx="26.550029" cy="12.0164549" rx="2.28533998" ry="2.26668614"></ellipse>
                <ellipse id="Oval-2-Copy-2" cx="10.3768537" cy="12.0164549" rx="2.28533998" ry="2.26668614"></ellipse>
            </g>
            <g id="Group-4-Copy" transform="translate(81.143976, 293.000000) rotate(-30.000000) translate(-81.143976, -293.000000) translate(63.143976, 278.000000)">
                <path d="M24.3656562,22.1896967 L28.2332555,22.1896967 C30.9997011,22.1896967 33.2354374,19.9547764 33.2354374,17.1939239 L33.2354374,7.7630461 C33.2354374,5.00616295 30.9934849,2.76727327 28.2284106,2.76727327 L7.20058444,2.76727327 C4.43664852,2.76727327 2.19355767,5.00600695 2.19355767,7.7630461 L2.19355767,17.1939239 C2.19355767,19.9515942 4.43078737,22.1896967 7.18828288,22.1896967 L19.4047038,22.1896967 L23.2623126,25.7315746 L24.3656562,22.1896967 Z M0.193557669,7.7630461 C0.193557669,3.89938745 3.33412945,0.767273267 7.20058444,0.767273267 L28.2284106,0.767273267 C32.0982846,0.767273267 35.2354374,3.90182163 35.2354374,7.7630461 L35.2354374,17.1939239 C35.2354374,21.0575825 32.1060347,24.1896967 28.2332555,24.1896967 L25.837423,24.1896967 L24.2335191,29.3384389 L18.6258066,24.1896967 L7.18828288,24.1896967 C3.32520282,24.1896967 0.193557669,21.0551483 0.193557669,17.1939239 L0.193557669,7.7630461 Z" id="Rectangle-2" fill-rule="nonzero"></path>
                <ellipse id="Oval-2" cx="18.4634413" cy="12.0164549" rx="2.28533998" ry="2.26668614"></ellipse>
                <ellipse id="Oval-2-Copy" cx="26.550029" cy="12.0164549" rx="2.28533998" ry="2.26668614"></ellipse>
                <ellipse id="Oval-2-Copy-2" cx="10.3768537" cy="12.0164549" rx="2.28533998" ry="2.26668614"></ellipse>
            </g>
            <g id="Group-3" transform="translate(361.000000, 147.000000)">
                <path d="M16.5805179,21.4950859 L28.7969388,21.4950859 C31.5544343,21.4950859 33.791664,19.2569834 33.791664,16.4993131 L33.791664,7.06843532 C33.791664,4.31139618 31.5485732,2.07266249 28.7846372,2.07266249 L7.75681108,2.07266249 C4.99173681,2.07266249 2.74978432,4.31155217 2.74978432,7.06843532 L2.74978432,16.4993131 C2.74978432,19.2601656 4.9855206,21.4950859 7.75196616,21.4950859 L11.6195655,21.4950859 L12.7229091,25.0369638 L16.5805179,21.4950859 Z M35.791664,7.06843532 L35.791664,16.4993131 C35.791664,20.3605376 32.6600189,23.4950859 28.7969388,23.4950859 L17.3594151,23.4950859 L11.7517026,28.6438281 L10.1477986,23.4950859 L7.75196616,23.4950859 C3.879187,23.4950859 0.749784315,20.3629718 0.749784315,16.4993131 L0.749784315,7.06843532 C0.749784315,3.20721085 3.88693706,0.0726624881 7.75681108,0.0726624881 L28.7846372,0.0726624881 C32.6510922,0.0726624881 35.791664,3.20477667 35.791664,7.06843532 Z" id="Rectangle-2" fill-rule="nonzero"></path>
                <ellipse id="Oval-2" transform="translate(17.521780, 11.321844) scale(-1, 1) translate(-17.521780, -11.321844) " cx="17.5217803" cy="11.3218441" rx="2.28533998" ry="2.26668614"></ellipse>
                <ellipse id="Oval-2-Copy" transform="translate(9.435193, 11.321844) scale(-1, 1) translate(-9.435193, -11.321844) " cx="9.43519272" cy="11.3218441" rx="2.28533998" ry="2.26668614"></ellipse>
                <ellipse id="Oval-2-Copy-2" transform="translate(25.608368, 11.321844) scale(-1, 1) translate(-25.608368, -11.321844) " cx="25.608368" cy="11.3218441" rx="2.28533998" ry="2.26668614"></ellipse>
            </g>
            <g id="Group-3-Copy" transform="translate(546.000000, 27.500000) rotate(30.000000) translate(-546.000000, -27.500000) translate(528.000000, 13.000000)">
                <path d="M16.5805179,21.4950859 L28.7969388,21.4950859 C31.5544343,21.4950859 33.791664,19.2569834 33.791664,16.4993131 L33.791664,7.06843532 C33.791664,4.31139618 31.5485732,2.07266249 28.7846372,2.07266249 L7.75681108,2.07266249 C4.99173681,2.07266249 2.74978432,4.31155217 2.74978432,7.06843532 L2.74978432,16.4993131 C2.74978432,19.2601656 4.9855206,21.4950859 7.75196616,21.4950859 L11.6195655,21.4950859 L12.7229091,25.0369638 L16.5805179,21.4950859 Z M35.791664,7.06843532 L35.791664,16.4993131 C35.791664,20.3605376 32.6600189,23.4950859 28.7969388,23.4950859 L17.3594151,23.4950859 L11.7517026,28.6438281 L10.1477986,23.4950859 L7.75196616,23.4950859 C3.879187,23.4950859 0.749784315,20.3629718 0.749784315,16.4993131 L0.749784315,7.06843532 C0.749784315,3.20721085 3.88693706,0.0726624881 7.75681108,0.0726624881 L28.7846372,0.0726624881 C32.6510922,0.0726624881 35.791664,3.20477667 35.791664,7.06843532 Z" id="Rectangle-2" fill-rule="nonzero"></path>
                <ellipse id="Oval-2" transform="translate(17.521780, 11.321844) scale(-1, 1) translate(-17.521780, -11.321844) " cx="17.5217803" cy="11.3218441" rx="2.28533998" ry="2.26668614"></ellipse>
                <ellipse id="Oval-2-Copy" transform="translate(9.435193, 11.321844) scale(-1, 1) translate(-9.435193, -11.321844) " cx="9.43519272" cy="11.3218441" rx="2.28533998" ry="2.26668614"></ellipse>
                <ellipse id="Oval-2-Copy-2" transform="translate(25.608368, 11.321844) scale(-1, 1) translate(-25.608368, -11.321844) " cx="25.608368" cy="11.3218441" rx="2.28533998" ry="2.26668614"></ellipse>
            </g>
            <path d="M126.5,221 C123.462434,221 121,218.537566 121,215.5 C121,212.462434 123.462434,210 126.5,210 C129.537566,210 132,212.462434 132,215.5 C132,218.537566 129.537566,221 126.5,221 Z M126.5,219 C128.432997,219 130,217.432997 130,215.5 C130,213.567003 128.432997,212 126.5,212 C124.567003,212 123,213.567003 123,215.5 C123,217.432997 124.567003,219 126.5,219 Z" id="Oval-3" fill-rule="nonzero"></path>
            <path d="M126.5,221 C123.462434,221 121,218.537566 121,215.5 C121,212.462434 123.462434,210 126.5,210 C129.537566,210 132,212.462434 132,215.5 C132,218.537566 129.537566,221 126.5,221 Z M126.5,219 C128.432997,219 130,217.432997 130,215.5 C130,213.567003 128.432997,212 126.5,212 C124.567003,212 123,213.567003 123,215.5 C123,217.432997 124.567003,219 126.5,219 Z" id="Oval-3" fill-rule="nonzero"></path>
            <path d="M244.5,69 C241.462434,69 239,66.5375661 239,63.5 C239,60.4624339 241.462434,58 244.5,58 C247.537566,58 250,60.4624339 250,63.5 C250,66.5375661 247.537566,69 244.5,69 Z M244.5,67 C246.432997,67 248,65.4329966 248,63.5 C248,61.5670034 246.432997,60 244.5,60 C242.567003,60 241,61.5670034 241,63.5 C241,65.4329966 242.567003,67 244.5,67 Z" id="Oval-3" fill-rule="nonzero"></path>
            <path d="M489.5,187 C486.462434,187 484,184.537566 484,181.5 C484,178.462434 486.462434,176 489.5,176 C492.537566,176 495,178.462434 495,181.5 C495,184.537566 492.537566,187 489.5,187 Z M489.5,185 C491.432997,185 493,183.432997 493,181.5 C493,179.567003 491.432997,178 489.5,178 C487.567003,178 486,179.567003 486,181.5 C486,183.432997 487.567003,185 489.5,185 Z" id="Oval-3-Copy" fill-rule="nonzero"></path>
            <path d="M244.5,69 C241.462434,69 239,66.5375661 239,63.5 C239,60.4624339 241.462434,58 244.5,58 C247.537566,58 250,60.4624339 250,63.5 C250,66.5375661 247.537566,69 244.5,69 Z M244.5,67 C246.432997,67 248,65.4329966 248,63.5 C248,61.5670034 246.432997,60 244.5,60 C242.567003,60 241,61.5670034 241,63.5 C241,65.4329966 242.567003,67 244.5,67 Z" id="Oval-3" fill-rule="nonzero"></path>
            <path d="M489.5,187 C486.462434,187 484,184.537566 484,181.5 C484,178.462434 486.462434,176 489.5,176 C492.537566,176 495,178.462434 495,181.5 C495,184.537566 492.537566,187 489.5,187 Z M489.5,185 C491.432997,185 493,183.432997 493,181.5 C493,179.567003 491.432997,178 489.5,178 C487.567003,178 486,179.567003 486,181.5 C486,183.432997 487.567003,185 489.5,185 Z" id="Oval-3-Copy-2" fill-rule="nonzero"></path>
            <path d="M559.5,337 C556.462434,337 554,334.537566 554,331.5 C554,328.462434 556.462434,326 559.5,326 C562.537566,326 565,328.462434 565,331.5 C565,334.537566 562.537566,337 559.5,337 Z M559.5,335 C561.432997,335 563,333.432997 563,331.5 C563,329.567003 561.432997,328 559.5,328 C557.567003,328 556,329.567003 556,331.5 C556,333.432997 557.567003,335 559.5,335 Z" id="Oval-3-Copy" fill-rule="nonzero"></path>
            <path d="M559.5,337 C556.462434,337 554,334.537566 554,331.5 C554,328.462434 556.462434,326 559.5,326 C562.537566,326 565,328.462434 565,331.5 C565,334.537566 562.537566,337 559.5,337 Z M559.5,335 C561.432997,335 563,333.432997 563,331.5 C563,329.567003 561.432997,328 559.5,328 C557.567003,328 556,329.567003 556,331.5 C556,333.432997 557.567003,335 559.5,335 Z" id="Oval-3-Copy-2" fill-rule="nonzero"></path>
            <path d="M570.647184,131.379121 C569.177619,131.245524 567.838635,130.884211 566.630191,130.29517 C565.421748,129.70613 564.380315,128.956177 563.505864,128.04529 L564.471399,126.551442 C564.556415,126.417845 564.677865,126.308541 564.835752,126.223524 C564.99364,126.138508 565.157597,126.096001 565.327629,126.096001 C565.558387,126.096001 565.819504,126.211378 566.110988,126.442136 C566.402472,126.672894 566.760749,126.937048 567.18583,127.234604 C567.610911,127.532161 568.117963,127.820604 568.707004,128.099943 C569.296044,128.379282 570.00349,128.567529 570.829361,128.66469 L571.503414,118.991116 C570.653252,118.736067 569.818285,118.447624 568.998486,118.125777 C568.178688,117.80393 567.443916,117.384928 566.79415,116.868759 C566.144384,116.35259 565.62215,115.702833 565.227432,114.91947 C564.832714,114.136107 564.635358,113.1554 564.635358,111.977319 C564.635358,111.090722 564.808424,110.225392 565.154561,109.381303 C565.500698,108.537214 566.004715,107.787262 566.666627,107.131423 C567.328538,106.475584 568.145288,105.938168 569.116901,105.51916 C570.088514,105.100152 571.205853,104.866361 572.46895,104.817781 L572.651126,102.194438 C572.675416,101.96368 572.766504,101.757216 572.924391,101.575038 C573.082278,101.392861 573.294815,101.301773 573.562009,101.301773 L574.764374,101.301773 L574.509327,104.908869 C575.784569,105.066756 576.88369,105.39467 577.806722,105.892622 C578.729755,106.390574 579.555613,106.99175 580.284323,107.69617 L579.500964,108.898535 C579.258061,109.26289 578.978726,109.445065 578.662952,109.445065 C578.49292,109.445065 578.283419,109.369159 578.034443,109.217344 C577.785467,109.06553 577.484879,108.889427 577.132669,108.689032 C576.780459,108.488637 576.373602,108.288245 575.912086,108.08785 C575.45057,107.887454 574.922263,107.744751 574.32715,107.659735 L573.725968,116.477079 C574.600419,116.744273 575.462713,117.035753 576.312875,117.351527 C577.163036,117.667301 577.92817,118.074158 578.608299,118.57211 C579.288428,119.070061 579.837989,119.692492 580.256997,120.439419 C580.676005,121.186347 580.885506,122.118474 580.885506,123.235829 C580.885506,124.328894 580.703331,125.355145 580.338976,126.314613 C579.974621,127.274081 579.443278,128.118157 578.744931,128.846867 C578.046585,129.575577 577.190363,130.167644 576.176242,130.623088 C575.162121,131.078532 574.005312,131.342685 572.705779,131.415556 L572.487167,134.621863 C572.462877,134.852621 572.368753,135.05605 572.204794,135.232155 C572.040834,135.408259 571.831333,135.496311 571.576284,135.496311 L570.373919,135.496311 L570.647184,131.379121 Z M577.806722,123.745924 C577.806722,123.138665 577.694381,122.616431 577.469696,122.179205 C577.24501,121.741979 576.938349,121.365485 576.549704,121.049711 C576.161059,120.733936 575.705622,120.460674 575.18338,120.229916 C574.661138,119.999158 574.102469,119.786621 573.507356,119.592298 L572.887956,128.66469 C573.677391,128.591819 574.378764,128.418753 574.992095,128.145487 C575.605425,127.872221 576.121587,127.523053 576.540595,127.097972 C576.959603,126.672891 577.275373,126.177983 577.487913,125.613233 C577.700454,125.048483 577.806722,124.426053 577.806722,123.745924 Z M567.695924,111.649401 C567.695924,112.232369 567.799156,112.739422 568.005624,113.170575 C568.212092,113.601728 568.497499,113.981259 568.861854,114.309179 C569.226209,114.637098 569.651283,114.922505 570.13709,115.165408 C570.622896,115.408312 571.151203,115.626921 571.722026,115.821244 L572.268555,107.605082 C571.47912,107.677953 570.795965,107.835837 570.219069,108.078741 C569.642174,108.321644 569.16852,108.625269 568.798092,108.989623 C568.427665,109.353978 568.151366,109.763871 567.969189,110.219315 C567.787011,110.674759 567.695924,111.151449 567.695924,111.649401 Z" id="$" transform="translate(572.195685, 118.399042) rotate(-20.000000) translate(-572.195685, -118.399042) "></path>
            <g id="Group" transform="translate(358.000000, 10.000000)">
                <g id="pig" transform="translate(0.000000, 34.000000)">
                    <path d="M39.1808143,42.7968621 C39.1808143,44.2088161 39.1924053,45.517092 39.1747262,46.825023 C39.168638,47.2541034 39.3186177,47.4145632 39.7656299,47.4051379 C40.9642968,47.3805402 42.1642517,47.3667471 43.3626844,47.4019195 C43.9157712,47.4180115 44.109539,47.2698506 44.0942015,46.7008851 C44.0479548,44.9914598 44.0800348,43.2800805 44.0383542,41.5704253 C44.0255925,41.0460575 44.1687815,40.7352529 44.6545472,40.464908 C47.015118,39.1500805 49.1178781,37.5108851 50.847855,35.4458276 C54.6707572,30.8835287 56.33634,25.6996207 55.3217231,19.8180115 C54.7181747,16.3162874 53.0083356,13.2813448 50.7015047,10.6042184 C47.4952638,6.88410345 43.3997989,4.42927586 38.599277,3.28605747 C33.8288448,2.15054023 28.9878132,2.26766667 24.2029802,3.31375862 C20.818309,4.05387356 17.8335838,5.66306897 15.1134598,7.75513793 C14.8702843,7.94237931 14.6290991,8.13226437 14.4043052,8.30778161 C12.1484041,6.81364368 10.5702803,6.62387356 9.34246035,6.9118046 C10.1648316,7.99847126 10.9559424,9.07329885 11.7844018,10.1197356 C12.0415099,10.4441034 12.0392854,10.651 11.7776112,10.9732989 C9.66267466,13.5821494 8.12236772,16.4646782 7.54773817,19.7866322 C7.47948042,20.1828391 7.30058189,20.2931839 6.91726136,20.2841034 C6.03517923,20.2626092 5.15216046,20.2695057 4.26996125,20.2796207 C3.11578477,20.2928391 2.64441994,20.7723793 2.64383453,21.9214598 C2.64219541,25.3422644 2.64278081,28.7628391 2.64348329,32.1838736 C2.64348329,33.5672069 3.09213457,34.0096207 4.51220016,34.0120345 C6.43512515,34.0157126 8.3582843,34.0026092 10.2814435,34.0252529 C10.5394882,34.0282414 10.9068858,34.1184713 11.0362594,34.2982414 C12.8373039,36.7939885 15.2338183,38.6262874 17.8015039,40.2835287 C17.9830952,40.4004253 18.114108,40.7324943 18.1118834,40.962954 C18.0945556,42.9135287 18.0327372,44.8637586 18.0142386,46.8139885 C18.0125994,46.9620345 18.2403204,47.2397356 18.3658304,47.2422644 C19.8505242,47.2721494 21.3365059,47.2614598 22.8887551,47.2614598 L22.8887551,42.584908 C28.3183487,44.224908 33.6917439,44.2946782 39.1808143,42.7968621 M5.65092206,6.18548276 C8.08443374,3.97835632 10.7653359,3.89663218 13.5924711,5.04525287 C14.0927548,5.24858621 14.3742155,5.15996552 14.7909039,4.88651724 C18.4666364,2.47456322 22.4419771,0.818356322 26.8733451,0.295482759 C29.8554945,-0.0567011494 32.8437321,-0.0764712644 35.8181543,0.197436782 C38.790469,0.470885057 41.5978177,1.43237931 44.2718121,2.7164023 C49.0144963,4.99398851 52.7261724,8.3864023 55.3848293,12.8653678 C55.9167246,13.7618046 56.3200658,14.7315747 56.7894403,15.6812299 C58.8166837,15.5182414 59.936907,16.1182414 60.172004,17.5182414 C60.3679962,18.6897356 59.5382489,19.6532989 57.9022875,20.0959425 C57.9520465,20.6075517 58.02569,21.1304253 58.0502768,21.6557126 C58.4444858,30.0952529 54.7451031,36.524908 47.8878337,41.3314598 C46.9276591,42.0042184 46.4708122,42.6292759 46.5876582,43.7793908 C46.692562,44.8135287 46.615172,45.8660575 46.6087326,46.9101954 C46.5981954,48.7582414 45.48207,49.8682414 43.6188559,49.8788161 C42.2837905,49.887092 40.9486081,49.8875517 39.6130744,49.8788161 C37.7793645,49.8659425 36.6729567,48.7705402 36.6469649,46.954908 C36.6428671,46.6275517 36.6463795,46.3001954 36.6463795,45.8972069 C32.8799099,46.5178966 29.1957477,46.4920345 25.4104281,45.773069 C25.4104281,46.1361724 25.4132381,46.4583563 25.4100769,46.7806552 C25.391227,48.6388161 24.288917,49.7354828 22.4183269,49.7458276 C21.0831444,49.753069 19.7474936,49.754908 18.4121941,49.7454828 C16.5867969,49.7323793 15.4617734,48.6219195 15.4493629,46.8177816 C15.4390598,45.2847931 15.4656371,43.7511149 15.4298105,42.2187011 C15.4237223,41.9634138 15.24658,41.6262874 15.0367723,41.4747931 C13.1194672,40.0838736 11.2988703,38.5983563 9.78818462,36.7682414 C9.63902447,36.5875517 9.28883763,36.4903103 9.02997333,36.4858276 C7.4914226,36.4600805 5.95228646,36.4776667 4.41315032,36.4721494 C1.69419714,36.4627241 0.113146293,34.9066322 0.114082934,32.2545632 C0.115370816,28.8327241 0.115722057,25.411 0.114082934,21.989046 C0.112560892,19.4341034 1.72018894,17.8316897 4.3240523,17.797092 C5.40716111,17.7826092 5.40809775,17.7831839 5.71906273,16.7967471 C6.37178477,14.7221494 7.36321979,12.8088161 8.61363619,11.0260575 C8.8729688,10.6562874 8.89053083,10.4181264 8.5981816,10.0501954 C7.59937053,8.79088506 6.64563533,7.4972069 5.65092206,6.18548276" id="Fill-44"></path>
                    <path d="M15.3305265,21.0215402 C14.1911021,21.0071724 13.2565681,20.084069 13.2639441,18.9805057 C13.2709689,17.8844138 14.2262262,16.9657931 15.3586258,16.9651034 C16.5384428,16.9645287 17.4672399,17.8895862 17.4476875,19.0446437 C17.4291889,20.1592414 16.4897374,21.0367126 15.3305265,21.0215402" id="Fill-46"></path>
                </g>
                <path d="M50,58.5 C50,56.3624586 49.6369744,54.2731398 48.9350042,52.2994275 C48.7499353,51.7790739 48.1780773,51.5072719 47.6577236,51.6923408 C47.13737,51.8774097 46.865568,52.4492677 47.0506369,52.9696213 C47.6763499,54.7289232 48,56.5916245 48,58.5 C48,59.0522847 48.4477153,59.5 49,59.5 C49.5522847,59.5 50,59.0522847 50,58.5 Z M46.8406392,48.1568739 C43.4224902,43.0965681 37.722718,40 31.5,40 C30.9477153,40 30.5,40.4477153 30.5,41 C30.5,41.5522847 30.9477153,42 31.5,42 C37.051217,42 42.1332253,44.7609498 45.1833129,49.2763691 C45.4924529,49.7340272 46.1140656,49.8544248 46.5717236,49.5452847 C47.0293816,49.2361446 47.1497792,48.614532 46.8406392,48.1568739 Z" id="Oval" fill-rule="nonzero"></path>
                <path d="M7.08963352,3.41380294 L12.6965738,15.7490716 C12.9251109,16.2518531 13.5179617,16.4741722 14.0207432,16.2456351 C14.5235247,16.017098 14.7458438,15.4242472 14.5173068,14.9214657 L8.91036648,2.58619706 C8.68182942,2.08341553 8.08897858,1.86109647 7.58619706,2.08963352 C7.08341553,2.31817058 6.86109647,2.91102142 7.08963352,3.41380294 Z M14.5254296,19.7725542 L17.0896335,25.4138029 C17.3181706,25.9165845 17.9110214,26.1389035 18.4138029,25.9103665 C18.9165845,25.6818294 19.1389035,25.0889786 18.9103665,24.5861971 L16.3461625,18.9449483 C16.1176255,18.4421668 15.5247746,18.2198477 15.0219931,18.4483848 C14.5192116,18.6769218 14.2968925,19.2697727 14.5254296,19.7725542 Z" id="Line" fill-rule="nonzero"></path>
                <path d="M57.0896335,2.58619706 L51.4826932,14.9214657 C51.2541562,15.4242472 51.4764753,16.017098 51.9792568,16.2456351 C52.4820383,16.4741722 53.0748891,16.2518531 53.3034262,15.7490716 L58.9103665,3.41380294 C59.1389035,2.91102142 58.9165845,2.31817058 58.4138029,2.08963352 C57.9110214,1.86109647 57.3181706,2.08341553 57.0896335,2.58619706 Z M49.6538375,18.9449483 L47.0896335,24.5861971 C46.8610965,25.0889786 47.0834155,25.6818294 47.5861971,25.9103665 C48.0889786,26.1389035 48.6818294,25.9165845 48.9103665,25.4138029 L51.4745704,19.7725542 C51.7031075,19.2697727 51.4807884,18.6769218 50.9780069,18.4483848 C50.4752254,18.2198477 49.8823745,18.4421668 49.6538375,18.9449483 Z" id="Line" fill-rule="nonzero"></path>
                <path d="M31.8827851,1.9272277 L32.0142813,15.4763731 C32.019641,16.0286318 32.4716801,16.471981 33.0239389,16.4666213 C33.5761976,16.4612616 34.0195468,16.0092225 34.0141871,15.4569637 L33.882691,1.90781837 C33.8773312,1.35555962 33.4252921,0.912210385 32.8730334,0.917570125 C32.3207746,0.922929865 31.8774254,1.37496896 31.8827851,1.9272277 Z M32.0571723,19.8957946 L32.117309,26.0921816 C32.1226688,26.6444404 32.5747079,27.0877896 33.1269666,27.0824299 C33.6792254,27.0770701 34.1225746,26.625031 34.1172149,26.0727723 L34.0570781,19.8763852 C34.0517184,19.3241265 33.5996793,18.8807772 33.0474206,18.886137 C32.4951618,18.8914967 32.0518126,19.3435358 32.0571723,19.8957946 Z" id="Line" fill-rule="nonzero"></path>
            </g>
            <g id="Group-8" transform="translate(23.874041, 191.500000) scale(-1, 1) rotate(18.000000) translate(-23.874041, -191.500000) translate(4.374041, 176.000000)">
                <g id="pig" transform="translate(0.190736, 0.000000)">
                    <path d="M24.6459961,26.5340545 C24.6459961,27.409466 24.6532872,28.220597 24.6421665,29.0315143 C24.6383368,29.2975441 24.7326789,29.3970292 25.0138639,29.3911855 C25.7678641,29.3759349 26.5226744,29.3673832 27.2765273,29.3891901 C27.6244368,29.3991671 27.7463229,29.3073074 27.7366751,28.9545487 C27.7075845,27.8947051 27.7277638,26.8336499 27.7015454,25.7736637 C27.6935178,25.4485556 27.7835884,25.2558568 28.0891507,25.088243 C29.5740258,24.2730499 30.8967298,23.2567487 31.984941,21.9764131 C34.3896699,19.1477878 35.4373751,15.9337648 34.7991484,12.2871671 C34.419497,10.1160982 33.3439531,8.23443379 31.892882,6.5746154 C29.876053,4.26814414 27.2998735,2.74615103 24.2801904,2.03735563 C21.2794346,1.33333494 18.2342696,1.40595333 15.2244553,2.05453034 C13.0953879,2.51340161 11.2178995,3.51110276 9.50685378,4.80818552 C9.35388851,4.92427517 9.20217525,5.04200391 9.0607726,5.1508246 C7.64173807,4.22445908 6.64904727,4.10680161 5.87670893,4.28531885 C6.39400697,4.95905218 6.89164119,5.62544529 7.41276888,6.27423609 C7.57449816,6.47534414 7.57309887,6.60362 7.40849734,6.80344529 C6.07813406,8.42093264 5.10923131,10.2081005 4.74777078,12.267712 C4.70483446,12.5133602 4.59230151,12.581774 4.35118053,12.5761441 C3.79632242,12.5628177 3.24087513,12.5670936 2.68594337,12.5733648 C1.95992913,12.5815602 1.66342544,12.8788752 1.66305721,13.5913051 C1.66202615,15.7122039 1.66239438,17.8329602 1.66283627,19.9540016 C1.66283627,20.8116683 1.94505239,21.0859648 2.83831945,21.0874614 C4.0479013,21.0897418 5.25763045,21.0816177 6.46735959,21.0956568 C6.62967805,21.0975097 6.86078301,21.1534522 6.94216318,21.2649097 C8.07507828,22.8122729 9.58256311,23.9482982 11.1977202,24.9757878 C11.311947,25.0482637 11.3943582,25.2541464 11.3929589,25.3970315 C11.3820591,26.6063878 11.3431734,27.8155303 11.3315372,29.0246729 C11.3305061,29.1164614 11.4737499,29.2886361 11.5526997,29.2902039 C12.4866201,29.3087326 13.4213505,29.3021051 14.3977653,29.3021051 L14.3977653,26.402643 C17.8131549,27.419443 21.1931938,27.4627005 24.6459961,26.5340545 M3.55461226,3.83499931 C5.08536961,2.46658092 6.77174353,2.41591195 8.55010281,3.12805678 C8.86479736,3.25412345 9.04184526,3.19917862 9.3039557,3.02964069 C11.61611,1.5342292 14.1167275,0.50738092 16.9042009,0.18319931 C18.7800691,-0.0351547126 20.659767,-0.0474121839 22.5307745,0.122410805 C24.4004563,0.291948736 26.1663692,0.888075172 27.8483979,1.68416943 C30.8316993,3.09627287 33.1664633,5.19956943 34.8388442,7.97652805 C35.1734235,8.53231885 35.4271382,9.13357632 35.7223899,9.72236253 C36.9975914,9.62130966 37.7022479,9.99330966 37.8501315,10.8613097 C37.973417,11.5876361 37.4514792,12.1850453 36.4224066,12.4594844 C36.4537067,12.7766821 36.5000308,13.1008637 36.5154967,13.4265418 C36.7634669,18.6590568 34.4364358,22.645443 30.1229921,25.6255051 C29.5190113,26.0426154 29.2316399,26.430151 29.3051398,27.1432223 C29.3711277,27.7843878 29.3224469,28.4369556 29.3183963,29.0843211 C29.3117681,30.2301097 28.6096892,30.9183097 27.4376674,30.924866 C26.5978682,30.929997 25.7579954,30.9302821 24.9179016,30.924866 C23.764439,30.9168844 23.0684728,30.2377349 23.0521231,29.112043 C23.0495454,28.9090821 23.0517549,28.7061211 23.0517549,28.4562683 C20.682524,28.8410959 18.3650671,28.8250614 15.983979,28.3793028 C15.983979,28.6044269 15.9857465,28.8041809 15.983758,29.0040062 C15.9719008,30.156066 15.2785123,30.8359993 14.1018508,30.8424131 C13.2619779,30.8469028 12.4218105,30.848043 11.581864,30.8421993 C10.4336303,30.8340752 9.72595424,30.1455901 9.71814763,29.0270246 C9.71166668,28.0765717 9.7283846,27.1256913 9.70584855,26.1755947 C9.70201889,26.0173166 9.59059066,25.8082982 9.45861485,25.7143717 C8.25256807,24.8520016 7.10735388,23.9309809 6.15708388,22.7963097 C6.06325733,22.6842821 5.84297851,22.6239924 5.68014452,22.6212131 C4.71234647,22.6052499 3.74418019,22.6161533 2.77601391,22.6127326 C1.06570465,22.606889 0.071172668,21.642112 0.0717618457,19.9978292 C0.0725719651,17.876289 0.0727929067,15.75482 0.0717618457,13.6332085 C0.0708044319,12.0491441 1.08205433,11.0556476 2.71996838,11.034197 C3.40127876,11.0252177 3.40186794,11.025574 3.59747494,10.4139832 C4.00805816,9.12773264 4.63170277,7.94146598 5.41825502,6.83615563 C5.5813836,6.60689816 5.59243068,6.45923839 5.40853359,6.23112115 C4.7802492,5.45034874 4.180319,4.64826828 3.55461226,3.83499931" id="Fill-44"></path>
                    <path d="M9.64339571,13.0333549 C8.92666102,13.0244469 8.33880896,12.4521228 8.34344873,11.7679136 C8.34786756,11.0883366 8.94875519,10.5187917 9.66107104,10.5183641 C10.403214,10.5180078 10.9874574,11.0915434 10.9751583,11.8076791 C10.963522,12.4987297 10.3725768,13.0427618 9.64339571,13.0333549" id="Fill-46"></path>
                </g>
                <path d="M31.6423493,15.19 C31.6423493,13.8647244 31.4139945,12.5693467 30.9724326,11.3456451 C30.8560183,11.0230258 30.4963012,10.8545086 30.1689819,10.9692513 C29.8416627,11.083994 29.6706905,11.438546 29.7871048,11.7611652 C30.1806985,12.8519324 30.3842848,14.0068072 30.3842848,15.19 C30.3842848,15.5324165 30.6659122,15.81 31.0133171,15.81 C31.360722,15.81 31.6423493,15.5324165 31.6423493,15.19 Z M29.6550095,8.77726184 C27.5048835,5.63987223 23.9195429,3.72 20.0052526,3.72 C19.6578476,3.72 19.3762203,3.99758346 19.3762203,4.34 C19.3762203,4.68241654 19.6578476,4.96 20.0052526,4.96 C23.4971471,4.96 26.6938943,6.67178887 28.6124977,9.47134887 C28.8069568,9.75509684 29.1979712,9.82974335 29.4858529,9.63807651 C29.7737346,9.44640967 29.8494685,9.06100981 29.6550095,8.77726184 Z" id="Oval" fill-rule="nonzero"></path>
            </g>
            <g id="Group-2" transform="translate(189.000000, 164.000000)">
                <g id="Group-8-Copy">
                    <g id="pig" transform="translate(0.264097, 0.000000)">
                        <path d="M34.1252254,37.6612386 C34.1252254,38.9037582 34.1353207,40.0550409 34.1199228,41.2060202 C34.1146202,41.583611 34.2452477,41.7248156 34.6345808,41.7165214 C35.6785811,41.6948754 36.7237031,41.6827375 37.7674994,41.7136892 C38.2492201,41.7278501 38.4179855,41.5974685 38.4046271,41.0967789 C38.3643477,39.5924846 38.3922883,38.0864708 38.3559859,36.5819743 C38.3448709,36.1205306 38.4695839,35.8470225 38.8926702,35.6091191 C40.9486511,34.4520708 42.7800874,33.0095789 44.2868414,31.1923283 C47.616466,27.1775053 49.0671348,22.6156662 48.1834362,17.4398501 C47.6577651,14.3583329 46.1685504,11.6875834 44.1593751,9.33171218 C41.3668427,6.05801103 37.7998248,3.89776276 33.6187252,2.89173057 C29.4638326,1.8924754 25.2474502,1.99554667 21.080015,2.91610759 C18.1320756,3.56740874 15.5324762,4.98350069 13.163336,6.82452138 C12.9515379,6.98929379 12.7414734,7.15639264 12.5456851,7.31084782 C10.5808681,5.99600644 9.20637314,5.82900874 8.1369816,6.08238805 C8.85324041,7.03865471 9.54227242,7.98450299 10.2638338,8.90536736 C10.4877667,9.19081103 10.4858292,9.37288 10.2579194,9.65650299 C8.41587793,11.9522915 7.07432028,14.4889168 6.57383647,17.4122363 C6.51438617,17.7608984 6.35857132,17.8580018 6.02471151,17.850011 C5.25644643,17.8310961 4.48736556,17.8371651 3.71899851,17.8460662 C2.71374802,17.8576984 2.30320446,18.2796938 2.30269459,19.2908846 C2.30126697,22.3011926 2.30177684,25.3112984 2.30238868,28.3218087 C2.30238868,29.5391421 2.69314946,29.9284662 3.92998078,29.9305903 C5.60478642,29.9338271 7.279796,29.9222961 8.95480559,29.9422225 C9.17955422,29.9448524 9.49954571,30.0242547 9.61222594,30.1824524 C11.1808776,32.3787099 13.2681643,33.9911329 15.5045356,35.4495053 C15.6626958,35.5523743 15.7768037,35.8445949 15.7748662,36.0473995 C15.7597742,37.7639053 15.7059324,39.4801076 15.6898207,41.1963099 C15.6883931,41.3265903 15.8867307,41.5709674 15.9960458,41.5731926 C17.2891663,41.5994915 18.5834084,41.5900846 19.9353673,41.5900846 L19.9353673,37.4747191 C24.6643683,38.9179191 29.3444221,38.9793168 34.1252254,37.6612386 M4.92177082,5.44322483 C7.041281,3.50095356 9.37626027,3.42903632 11.8386039,4.43982253 C12.2743348,4.61875586 12.5194781,4.54076966 12.8824002,4.30013517 C16.0838446,2.17761563 19.5462381,0.720153563 23.4058167,0.260024828 C26.0031726,-0.0498970115 28.6058312,-0.0672947126 31.1964569,0.173744368 C33.7852472,0.414378851 36.2303574,1.26049379 38.5593202,2.39043402 C42.6900452,4.39470989 45.9227953,7.38003402 48.2383997,11.3215237 C48.7016633,12.110388 49.0529606,12.9637857 49.4617706,13.7994823 C51.2274342,13.6560524 52.2031125,14.1840524 52.4078744,15.4160524 C52.5785773,16.4469674 51.8558942,17.294903 50.4310246,17.6844294 C50.4743631,18.1346455 50.5385042,18.5947743 50.5599185,19.0570271 C50.9032618,26.4838225 47.6812189,32.1419191 41.7087584,36.3716846 C40.8724772,36.9637122 40.4745783,37.5137628 40.5763475,38.5258639 C40.6677153,39.4359053 40.6003111,40.3621306 40.5947026,41.280972 C40.585525,42.9072524 39.6134158,43.8840524 37.9906164,43.8933582 C36.8278176,43.9006409 35.6649167,43.9010455 34.5017099,43.8933582 C32.9046078,43.8820294 31.9409623,42.9180754 31.9183243,41.3203191 C31.9147552,41.0322455 31.9178144,40.744172 31.9178144,40.3895421 C28.6373409,40.935749 25.4285544,40.9129903 22.1316632,40.2803007 C22.1316632,40.5998317 22.1341106,40.8833536 22.1313573,41.1669766 C22.1149396,42.8021582 21.1548632,43.7672248 19.5256395,43.7763283 C18.3627387,43.7827007 17.19943,43.7843191 16.0364271,43.7760248 C14.4465651,43.7644938 13.4667059,42.7872892 13.4558967,41.1996478 C13.4469231,39.8506179 13.470071,38.5009811 13.4388672,37.152457 C13.4335646,36.9278041 13.2792794,36.6311329 13.0965436,36.4978179 C11.4266327,35.2738087 9.84095153,33.9665536 8.52519306,32.3560524 C8.39527937,32.1970455 8.09027793,32.1114731 7.86481548,32.1075283 C6.52478742,32.0848708 5.1842495,32.1003467 3.84371157,32.0954915 C1.47559106,32.0871972 0.0985467711,30.7178363 0.0993625556,28.3840156 C0.100484259,25.3727972 0.100790179,22.36168 0.0993625556,19.3503605 C0.0980369057,17.102011 1.49822908,15.6918869 3.76611007,15.6614409 C4.7094629,15.6486961 4.71027868,15.6492018 4.98111915,14.7811375 C5.54961899,12.9554915 6.41312692,11.2717582 7.50219926,9.70293057 C7.7280696,9.37753287 7.74336556,9.16795126 7.48873882,8.84417195 C6.61880659,7.73597885 5.78813399,6.59754207 4.92177082,5.44322483" id="Fill-44"></path>
                        <path d="M13.3523941,18.4989554 C12.3599922,18.4863117 11.5460432,17.6739807 11.5524675,16.7028451 C11.5585859,15.7382841 12.3905841,14.9298979 13.3768676,14.929291 C14.4044502,14.9287853 15.2134025,15.7428359 15.196373,16.7592864 C15.1802613,17.7401324 14.3620294,18.5123071 13.3523941,18.4989554" id="Fill-46"></path>
                    </g>
                    <path d="M43.8124837,21.56 C43.8124837,19.6789636 43.4963001,17.840363 42.8849067,16.1034962 C42.7237177,15.645585 42.2256478,15.4063992 41.7724365,15.5692599 C41.3192253,15.7321205 41.0824945,16.2353555 41.2436835,16.6932668 C41.7886594,18.2414525 42.0705482,19.8806295 42.0705482,21.56 C42.0705482,22.0460106 42.4604937,22.44 42.9415159,22.44 C43.4225381,22.44 43.8124837,22.0460106 43.8124837,21.56 Z M41.0607823,12.4580491 C38.0836849,8.00497994 33.1193671,5.28 27.6995805,5.28 C27.2185583,5.28 26.8286127,5.67398942 26.8286127,6.16 C26.8286127,6.64601058 27.2185583,7.04 27.6995805,7.04 C32.5345114,7.04 36.9607767,9.46963582 39.6173046,13.4432048 C39.8865556,13.8459439 40.4279602,13.9518938 40.8265656,13.6798505 C41.2251709,13.4078073 41.3300333,12.8607881 41.0607823,12.4580491 Z" id="Oval" fill-rule="nonzero"></path>
                </g>
            </g>
            <g id="Group-8-Copy-2" transform="translate(504.500000, 254.500000) scale(-1, 1) rotate(18.000000) translate(-504.500000, -254.500000) translate(483.000000, 237.000000)">
                <g id="pig" transform="translate(0.210299, 0.000000)">
                    <path d="M27.1737906,29.9578034 C27.1737906,30.9461713 27.1818295,31.8619644 27.1695681,32.7775161 C27.1653457,33.0778724 27.2693639,33.1901943 27.5793885,33.1835966 C28.410722,33.1663782 29.2429487,33.156723 30.0741199,33.1813437 C30.4577123,33.192608 30.5920996,33.0888954 30.5814623,32.6906195 C30.549388,31.4940218 30.571637,30.2960563 30.5427295,29.0992977 C30.5338786,28.7322402 30.6331872,28.514677 30.9700892,28.3254356 C32.6072592,27.4050563 34.0656251,26.2576195 35.2654478,24.8120793 C37.9168155,21.6184701 39.0719777,17.9897345 38.3682918,13.872608 C37.9497018,11.4214011 36.7638457,9.29694138 35.1639468,7.42295287 C32.9402636,4.81887241 30.0998605,3.1004931 26.7704663,2.30024023 C23.4619408,1.50537816 20.1044511,1.58736667 16.7859379,2.31963103 C14.4385047,2.83771149 12.3684533,3.96414828 10.4819157,5.42859655 C10.3132617,5.55966552 10.1459881,5.69258506 9.99008261,5.81544713 C8.42550608,4.76955057 7.33100083,4.63671149 6.47944831,4.83826322 C7.04980255,5.59892989 7.59847619,6.3513092 8.17305287,7.08381494 C8.35136977,7.31087241 8.34982696,7.4557 8.16834322,7.6813092 C6.70153243,9.5075046 5.63325503,11.5252747 5.23472163,13.8506425 C5.18738158,14.1279874 5.0633068,14.2052287 4.79745546,14.1988724 C4.18568882,14.1838264 3.57327258,14.188654 2.96142474,14.1957345 C2.1609475,14.2049874 1.83403318,14.5406655 1.83362718,15.3450218 C1.83249037,17.7395851 1.83289637,20.1339874 1.83338357,22.5287115 C1.83338357,23.4970448 2.14454494,23.8067345 3.12942914,23.8084241 C4.46307067,23.8109989 5.7968746,23.8018264 7.13067852,23.817677 C7.30964503,23.819769 7.56445306,23.8829299 7.65417992,24.008769 C8.90329144,25.755792 10.5653901,27.0384011 12.3462043,28.1984701 C12.4721467,28.2802977 12.5630104,28.512746 12.5614675,28.6740678 C12.5494498,30.0394701 12.5065758,31.404631 12.4937461,32.769792 C12.4926093,32.8734241 12.6505448,33.0678149 12.737592,33.0695851 C13.7672991,33.0905046 14.7978993,33.0830218 15.8744592,33.0830218 L15.8744592,29.8094356 C19.6401451,30.9574356 23.3668547,31.0062747 27.1737906,29.9578034 M3.91918788,4.32983793 C5.60694598,2.78484943 7.46628133,2.72764253 9.42703644,3.53167701 C9.77400735,3.67401034 9.96921401,3.61197586 10.2582076,3.42056207 C12.8075059,1.73219425 15.564597,0.572849425 18.6379651,0.206837931 C20.7062301,-0.0396908046 22.7787174,-0.0535298851 24.8416231,0.138205747 C26.9030672,0.32961954 28.8500994,1.00266552 30.7046439,1.90148161 C33.9939249,3.49579195 36.5681518,5.87048161 38.412059,9.00575747 C38.7809541,9.63326322 39.0606908,10.3121023 39.3862247,10.9768609 C40.7922161,10.862769 41.5691451,11.282769 41.7321963,12.262769 C41.8681264,13.0828149 41.2926565,13.7573092 40.1580381,14.0671598 C40.1925484,14.4252862 40.2436237,14.7912977 40.2606759,15.1589989 C40.5340789,21.066677 37.968378,25.5674356 33.2125298,28.9320218 C32.5466022,29.4029529 32.2297568,29.8404931 32.3107952,30.6455736 C32.3835511,31.3694701 32.3298774,32.1062402 32.3254113,32.8371368 C32.3181033,34.130769 31.5440163,34.907769 30.2517872,34.9151713 C29.3258547,34.9209644 28.3998411,34.9212862 27.4735838,34.9151713 C26.2018173,34.9061598 25.43447,34.1393782 25.4164434,32.8684356 C25.4136014,32.6392862 25.4160374,32.4101368 25.4160374,32.1280448 C22.8038085,32.5625276 20.2486637,32.5444241 17.6233614,32.0411483 C17.6233614,32.2953207 17.6253103,32.5208494 17.6231178,32.7464586 C17.6100445,34.0471713 16.8455392,34.8148379 15.5481944,34.8220793 C14.6221808,34.8271483 13.6958424,34.8284356 12.7697475,34.8218379 C11.5037463,34.8126655 10.723488,34.0353437 10.7148807,32.7724471 C10.7077351,31.6993552 10.7261676,30.6257805 10.7013202,29.5530908 C10.6970978,29.3743897 10.574241,29.1384011 10.4287292,29.0323552 C9.09898531,28.0587115 7.83631326,27.0188494 6.78857966,25.737769 C6.68512987,25.6112862 6.44225835,25.5432172 6.26272344,25.5400793 C5.19566406,25.5220563 4.12819867,25.5343667 3.06073329,25.5305046 C1.17500769,25.5239069 0.0784724288,24.4346425 0.079122035,22.5781943 C0.0800152435,20.1829069 0.0802588459,17.7877 0.079122035,15.3923322 C0.0780664249,13.6038724 1.19303426,12.4821828 2.9989395,12.4579644 C3.75012786,12.4478264 3.75077747,12.4482287 3.96644673,11.757723 C4.41914105,10.3055046 5.10674921,8.96617126 5.97397349,7.71824023 C6.1538332,7.45940115 6.16601332,7.29268851 5.96325498,7.03513678 C5.27053117,6.15361954 4.60906966,5.24804483 3.91918788,4.32983793" id="Fill-44"></path>
                    <path d="M10.6324619,14.7150782 C9.842216,14.7050207 9.19407141,14.0588483 9.19918706,13.286354 C9.20405911,12.5190897 9.86657623,11.8760552 10.6519501,11.8755724 C11.4702103,11.8751701 12.1143761,12.5227103 12.1008155,13.3312506 C12.0879858,14.111469 11.4364308,14.7256989 10.6324619,14.7150782" id="Fill-46"></path>
                </g>
                <path d="M34.8877185,17.15 C34.8877185,15.653721 34.6359427,14.1911978 34.1490924,12.8095993 C34.0207381,12.4453517 33.624127,12.2550903 33.2632365,12.3846385 C32.9023461,12.5141868 32.7138382,12.9144874 32.8421925,13.2787349 C33.2761547,14.5102463 33.5006217,15.8141371 33.5006217,17.15 C33.5006217,17.5365993 33.8111339,17.85 34.1941701,17.85 C34.5772063,17.85 34.8877185,17.5365993 34.8877185,17.15 Z M32.6965489,9.90981175 C30.3258972,6.36759768 26.3728294,4.2 22.0570733,4.2 C21.6740371,4.2 21.3635249,4.51340068 21.3635249,4.9 C21.3635249,5.28659932 21.6740371,5.6 22.0570733,5.6 C25.9071109,5.6 29.4317296,7.53266486 31.5471129,10.6934584 C31.7615165,11.013819 32.192635,11.0980973 32.5100429,10.8816993 C32.8274509,10.6653012 32.9109525,10.2301724 32.6965489,9.90981175 Z" id="Oval" fill-rule="nonzero"></path>
            </g>
            <path d="M19.2343052,22.5118096 L20.8363932,26.0598227 L22.6771997,22.6345005 L26.544365,22.2125563 L23.8527489,19.4002595 L24.6416598,15.5907113 L21.1361263,17.2778013 L17.7562059,15.3464938 L18.2823471,19.2008654 L15.4041031,21.8156525 L19.2343052,22.5118096 Z M20.921676,16.1723037 L21.4280059,16.19018 L21.1795379,16.0482039 L20.921676,16.1723037 Z M17.3378371,18.5874519 L17.1644509,19.0641788 L17.1256843,18.7801855 L17.3378371,18.5874519 Z M13.0390319,22.4927707 L17.1256843,18.7801855 L16.3782557,13.3047215 L21.1795379,16.0482039 L26.1550441,13.6536677 L25.0353198,19.0606708 L28.8588443,23.0556259 L23.3652057,23.6550338 L20.7515508,28.5184509 L18.476979,23.4811429 L13.0390319,22.4927707 Z" id="Star-2-Copy-5" fill-rule="nonzero" transform="translate(20.948938, 20.911586) rotate(-40.000000) translate(-20.948938, -20.911586) "></path>
        </g>
    </g>
</svg>