<?xml version="1.0" encoding="UTF-8" standalone="no"?>
<svg width="108px" height="323px" viewBox="0 0 108 323" version="1.1" xmlns="http://www.w3.org/2000/svg" xmlns:xlink="http://www.w3.org/1999/xlink">
    <!-- Generator: Sketch 42 (36781) - http://www.bohemiancoding.com/sketch -->
    <title>sprite</title>
    <desc>Created with Sketch.</desc>
    <defs>
        <path d="M0,10.0006116 C0,4.47742632 4.47342884,0 10.0096708,0 L35.9903292,0 C41.5185177,0 46,4.47455891 46,10.0006116 L46,20.9993884 C46,26.5225737 41.528648,31 35.9980688,31 L33.6630859,31 L31.5576172,37.8144531 L24.1962891,31 L9.99873303,31 C4.47658526,31 0,26.5254411 0,20.9993884 L0,10.0006116 Z" id="path-1"></path>
        <mask id="mask-2" maskContentUnits="userSpaceOnUse" maskUnits="objectBoundingBox" x="0" y="0" width="46" height="37.8144531" fill="white">
            <use xlink:href="#path-1"></use>
        </mask>
        <path d="M0,10.0006116 C0,4.47742632 4.47342884,0 10.0096708,0 L35.9903292,0 C41.5185177,0 46,4.47455891 46,10.0006116 L46,20.9993884 C46,26.5225737 41.528648,31 35.9980688,31 L33.6630859,31 L31.5576172,37.8144531 L24.1962891,31 L9.99873303,31 C4.47658526,31 0,26.5254411 0,20.9993884 L0,10.0006116 Z" id="path-3"></path>
        <mask id="mask-4" maskContentUnits="userSpaceOnUse" maskUnits="objectBoundingBox" x="0" y="0" width="46" height="37.8144531" fill="white">
            <use xlink:href="#path-3"></use>
        </mask>
    </defs>
    <g id="Page-1" stroke="none" stroke-width="1" fill="none" fill-rule="evenodd">
        <g id="sprite">
            <g id="Group-15" transform="translate(1.000000, 121.000000)">
                <g id="Group-7">
                    <g id="Group-2" transform="translate(21.000000, 28.000000)">
                        <g id="pig" fill="#293460">
                            <path d="M39.1808143,42.7968621 C39.1808143,44.2088161 39.1924053,45.517092 39.1747262,46.825023 C39.168638,47.2541034 39.3186177,47.4145632 39.7656299,47.4051379 C40.9642968,47.3805402 42.1642517,47.3667471 43.3626844,47.4019195 C43.9157712,47.4180115 44.109539,47.2698506 44.0942015,46.7008851 C44.0479548,44.9914598 44.0800348,43.2800805 44.0383542,41.5704253 C44.0255925,41.0460575 44.1687815,40.7352529 44.6545472,40.464908 C47.015118,39.1500805 49.1178781,37.5108851 50.847855,35.4458276 C54.6707572,30.8835287 56.33634,25.6996207 55.3217231,19.8180115 C54.7181747,16.3162874 53.0083356,13.2813448 50.7015047,10.6042184 C47.4952638,6.88410345 43.3997989,4.42927586 38.599277,3.28605747 C33.8288448,2.15054023 28.9878132,2.26766667 24.2029802,3.31375862 C20.818309,4.05387356 17.8335838,5.66306897 15.1134598,7.75513793 C14.8702843,7.94237931 14.6290991,8.13226437 14.4043052,8.30778161 C12.1484041,6.81364368 10.5702803,6.62387356 9.34246035,6.9118046 C10.1648316,7.99847126 10.9559424,9.07329885 11.7844018,10.1197356 C12.0415099,10.4441034 12.0392854,10.651 11.7776112,10.9732989 C9.66267466,13.5821494 8.12236772,16.4646782 7.54773817,19.7866322 C7.47948042,20.1828391 7.30058189,20.2931839 6.91726136,20.2841034 C6.03517923,20.2626092 5.15216046,20.2695057 4.26996125,20.2796207 C3.11578477,20.2928391 2.64441994,20.7723793 2.64383453,21.9214598 C2.64219541,25.3422644 2.64278081,28.7628391 2.64348329,32.1838736 C2.64348329,33.5672069 3.09213457,34.0096207 4.51220016,34.0120345 C6.43512515,34.0157126 8.3582843,34.0026092 10.2814435,34.0252529 C10.5394882,34.0282414 10.9068858,34.1184713 11.0362594,34.2982414 C12.8373039,36.7939885 15.2338183,38.6262874 17.8015039,40.2835287 C17.9830952,40.4004253 18.114108,40.7324943 18.1118834,40.962954 C18.0945556,42.9135287 18.0327372,44.8637586 18.0142386,46.8139885 C18.0125994,46.9620345 18.2403204,47.2397356 18.3658304,47.2422644 C19.8505242,47.2721494 21.3365059,47.2614598 22.8887551,47.2614598 L22.8887551,42.584908 C28.3183487,44.224908 33.6917439,44.2946782 39.1808143,42.7968621 M5.65092206,6.18548276 C8.08443374,3.97835632 10.7653359,3.89663218 13.5924711,5.04525287 C14.0927548,5.24858621 14.3742155,5.15996552 14.7909039,4.88651724 C18.4666364,2.47456322 22.4419771,0.818356322 26.8733451,0.295482759 C29.8554945,-0.0567011494 32.8437321,-0.0764712644 35.8181543,0.197436782 C38.790469,0.470885057 41.5978177,1.43237931 44.2718121,2.7164023 C49.0144963,4.99398851 52.7261724,8.3864023 55.3848293,12.8653678 C55.9167246,13.7618046 56.3200658,14.7315747 56.7894403,15.6812299 C58.8166837,15.5182414 59.936907,16.1182414 60.172004,17.5182414 C60.3679962,18.6897356 59.5382489,19.6532989 57.9022875,20.0959425 C57.9520465,20.6075517 58.02569,21.1304253 58.0502768,21.6557126 C58.4444858,30.0952529 54.7451031,36.524908 47.8878337,41.3314598 C46.9276591,42.0042184 46.4708122,42.6292759 46.5876582,43.7793908 C46.692562,44.8135287 46.615172,45.8660575 46.6087326,46.9101954 C46.5981954,48.7582414 45.48207,49.8682414 43.6188559,49.8788161 C42.2837905,49.887092 40.9486081,49.8875517 39.6130744,49.8788161 C37.7793645,49.8659425 36.6729567,48.7705402 36.6469649,46.954908 C36.6428671,46.6275517 36.6463795,46.3001954 36.6463795,45.8972069 C32.8799099,46.5178966 29.1957477,46.4920345 25.4104281,45.773069 C25.4104281,46.1361724 25.4132381,46.4583563 25.4100769,46.7806552 C25.391227,48.6388161 24.288917,49.7354828 22.4183269,49.7458276 C21.0831444,49.753069 19.7474936,49.754908 18.4121941,49.7454828 C16.5867969,49.7323793 15.4617734,48.6219195 15.4493629,46.8177816 C15.4390598,45.2847931 15.4656371,43.7511149 15.4298105,42.2187011 C15.4237223,41.9634138 15.24658,41.6262874 15.0367723,41.4747931 C13.1194672,40.0838736 11.2988703,38.5983563 9.78818462,36.7682414 C9.63902447,36.5875517 9.28883763,36.4903103 9.02997333,36.4858276 C7.4914226,36.4600805 5.95228646,36.4776667 4.41315032,36.4721494 C1.69419714,36.4627241 0.113146293,34.9066322 0.114082934,32.2545632 C0.115370816,28.8327241 0.115722057,25.411 0.114082934,21.989046 C0.112560892,19.4341034 1.72018894,17.8316897 4.3240523,17.797092 C5.40716111,17.7826092 5.40809775,17.7831839 5.71906273,16.7967471 C6.37178477,14.7221494 7.36321979,12.8088161 8.61363619,11.0260575 C8.8729688,10.6562874 8.89053083,10.4181264 8.5981816,10.0501954 C7.59937053,8.79088506 6.64563533,7.4972069 5.65092206,6.18548276" id="Fill-44"></path>
                            <path d="M15.3305265,21.0215402 C14.1911021,21.0071724 13.2565681,20.084069 13.2639441,18.9805057 C13.2709689,17.8844138 14.2262262,16.9657931 15.3586258,16.9651034 C16.5384428,16.9645287 17.4672399,17.8895862 17.4476875,19.0446437 C17.4291889,20.1592414 16.4897374,21.0367126 15.3305265,21.0215402" id="Fill-46"></path>
                        </g>
                        <path d="M49,24.5 C49,22.4426105 48.6449653,20.4681438 47.9928205,18.6345244 M46.011976,14.7166215 C42.86719,10.0610084 37.5410634,7 31.5,7" id="Oval" stroke="#293460" stroke-width="2" stroke-linecap="round"></path>
                    </g>
                    <polygon id="Star" fill="#293460" points="8.5 48.75 3.50382536 51.3766445 4.45800981 45.8133222 0.416019611 41.8733555 6.00191268 41.0616778 8.5 36 10.9980873 41.0616778 16.5839804 41.8733555 12.5419902 45.8133222 13.4961746 51.3766445"></polygon>
                    <polygon id="Star-Copy" fill="#293460" points="19.5 21.75 14.5038254 24.3766445 15.4580098 18.8133222 11.4160196 14.8733555 17.0019127 14.0616778 19.5 9 21.9980873 14.0616778 27.5839804 14.8733555 23.5419902 18.8133222 24.4961746 24.3766445"></polygon>
                    <polygon id="Star-Copy-2" fill="#293460" points="51.5 12.75 46.5038254 15.3766445 47.4580098 9.81332223 43.4160196 5.87335555 49.0019127 5.06167777 51.5 0 53.9980873 5.06167777 59.5839804 5.87335555 55.5419902 9.81332223 56.4961746 15.3766445"></polygon>
                    <polygon id="Star-Copy-3" fill="#293460" points="82.5 21.75 77.5038254 24.3766445 78.4580098 18.8133222 74.4160196 14.8733555 80.0019127 14.0616778 82.5 9 84.9980873 14.0616778 90.5839804 14.8733555 86.5419902 18.8133222 87.4961746 24.3766445"></polygon>
                    <polygon id="Star-Copy-4" fill="#293460" points="95.5 48.75 90.5038254 51.3766445 91.4580098 45.8133222 87.4160196 41.8733555 93.0019127 41.0616778 95.5 36 97.9980873 41.0616778 103.58398 41.8733555 99.5419902 45.8133222 100.496175 51.3766445"></polygon>
                </g>
            </g>
            <g id="Group" transform="translate(1.000000, 10.000000)">
                <g id="pig" transform="translate(0.000000, 33.000000)" fill="#293460">
                    <path d="M39.1808143,42.7968621 C39.1808143,44.2088161 39.1924053,45.517092 39.1747262,46.825023 C39.168638,47.2541034 39.3186177,47.4145632 39.7656299,47.4051379 C40.9642968,47.3805402 42.1642517,47.3667471 43.3626844,47.4019195 C43.9157712,47.4180115 44.109539,47.2698506 44.0942015,46.7008851 C44.0479548,44.9914598 44.0800348,43.2800805 44.0383542,41.5704253 C44.0255925,41.0460575 44.1687815,40.7352529 44.6545472,40.464908 C47.015118,39.1500805 49.1178781,37.5108851 50.847855,35.4458276 C54.6707572,30.8835287 56.33634,25.6996207 55.3217231,19.8180115 C54.7181747,16.3162874 53.0083356,13.2813448 50.7015047,10.6042184 C47.4952638,6.88410345 43.3997989,4.42927586 38.599277,3.28605747 C33.8288448,2.15054023 28.9878132,2.26766667 24.2029802,3.31375862 C20.818309,4.05387356 17.8335838,5.66306897 15.1134598,7.75513793 C14.8702843,7.94237931 14.6290991,8.13226437 14.4043052,8.30778161 C12.1484041,6.81364368 10.5702803,6.62387356 9.34246035,6.9118046 C10.1648316,7.99847126 10.9559424,9.07329885 11.7844018,10.1197356 C12.0415099,10.4441034 12.0392854,10.651 11.7776112,10.9732989 C9.66267466,13.5821494 8.12236772,16.4646782 7.54773817,19.7866322 C7.47948042,20.1828391 7.30058189,20.2931839 6.91726136,20.2841034 C6.03517923,20.2626092 5.15216046,20.2695057 4.26996125,20.2796207 C3.11578477,20.2928391 2.64441994,20.7723793 2.64383453,21.9214598 C2.64219541,25.3422644 2.64278081,28.7628391 2.64348329,32.1838736 C2.64348329,33.5672069 3.09213457,34.0096207 4.51220016,34.0120345 C6.43512515,34.0157126 8.3582843,34.0026092 10.2814435,34.0252529 C10.5394882,34.0282414 10.9068858,34.1184713 11.0362594,34.2982414 C12.8373039,36.7939885 15.2338183,38.6262874 17.8015039,40.2835287 C17.9830952,40.4004253 18.114108,40.7324943 18.1118834,40.962954 C18.0945556,42.9135287 18.0327372,44.8637586 18.0142386,46.8139885 C18.0125994,46.9620345 18.2403204,47.2397356 18.3658304,47.2422644 C19.8505242,47.2721494 21.3365059,47.2614598 22.8887551,47.2614598 L22.8887551,42.584908 C28.3183487,44.224908 33.6917439,44.2946782 39.1808143,42.7968621 M5.65092206,6.18548276 C8.08443374,3.97835632 10.7653359,3.89663218 13.5924711,5.04525287 C14.0927548,5.24858621 14.3742155,5.15996552 14.7909039,4.88651724 C18.4666364,2.47456322 22.4419771,0.818356322 26.8733451,0.295482759 C29.8554945,-0.0567011494 32.8437321,-0.0764712644 35.8181543,0.197436782 C38.790469,0.470885057 41.5978177,1.43237931 44.2718121,2.7164023 C49.0144963,4.99398851 52.7261724,8.3864023 55.3848293,12.8653678 C55.9167246,13.7618046 56.3200658,14.7315747 56.7894403,15.6812299 C58.8166837,15.5182414 59.936907,16.1182414 60.172004,17.5182414 C60.3679962,18.6897356 59.5382489,19.6532989 57.9022875,20.0959425 C57.9520465,20.6075517 58.02569,21.1304253 58.0502768,21.6557126 C58.4444858,30.0952529 54.7451031,36.524908 47.8878337,41.3314598 C46.9276591,42.0042184 46.4708122,42.6292759 46.5876582,43.7793908 C46.692562,44.8135287 46.615172,45.8660575 46.6087326,46.9101954 C46.5981954,48.7582414 45.48207,49.8682414 43.6188559,49.8788161 C42.2837905,49.887092 40.9486081,49.8875517 39.6130744,49.8788161 C37.7793645,49.8659425 36.6729567,48.7705402 36.6469649,46.954908 C36.6428671,46.6275517 36.6463795,46.3001954 36.6463795,45.8972069 C32.8799099,46.5178966 29.1957477,46.4920345 25.4104281,45.773069 C25.4104281,46.1361724 25.4132381,46.4583563 25.4100769,46.7806552 C25.391227,48.6388161 24.288917,49.7354828 22.4183269,49.7458276 C21.0831444,49.753069 19.7474936,49.754908 18.4121941,49.7454828 C16.5867969,49.7323793 15.4617734,48.6219195 15.4493629,46.8177816 C15.4390598,45.2847931 15.4656371,43.7511149 15.4298105,42.2187011 C15.4237223,41.9634138 15.24658,41.6262874 15.0367723,41.4747931 C13.1194672,40.0838736 11.2988703,38.5983563 9.78818462,36.7682414 C9.63902447,36.5875517 9.28883763,36.4903103 9.02997333,36.4858276 C7.4914226,36.4600805 5.95228646,36.4776667 4.41315032,36.4721494 C1.69419714,36.4627241 0.113146293,34.9066322 0.114082934,32.2545632 C0.115370816,28.8327241 0.115722057,25.411 0.114082934,21.989046 C0.112560892,19.4341034 1.72018894,17.8316897 4.3240523,17.797092 C5.40716111,17.7826092 5.40809775,17.7831839 5.71906273,16.7967471 C6.37178477,14.7221494 7.36321979,12.8088161 8.61363619,11.0260575 C8.8729688,10.6562874 8.89053083,10.4181264 8.5981816,10.0501954 C7.59937053,8.79088506 6.64563533,7.4972069 5.65092206,6.18548276" id="Fill-44"></path>
                    <path d="M15.3305265,21.0215402 C14.1911021,21.0071724 13.2565681,20.084069 13.2639441,18.9805057 C13.2709689,17.8844138 14.2262262,16.9657931 15.3586258,16.9651034 C16.5384428,16.9645287 17.4672399,17.8895862 17.4476875,19.0446437 C17.4291889,20.1592414 16.4897374,21.0367126 15.3305265,21.0215402" id="Fill-46"></path>
                </g>
                <path d="M49,57.5 C49,55.4426105 48.6449653,53.4681438 47.9928205,51.6345244 M46.011976,47.7166215 C42.86719,43.0610084 37.5410634,40 31.5,40" id="Oval" stroke="#293460" stroke-width="2" stroke-linecap="round"></path>
                <path d="M8,2 L13.6069403,14.3352686 M15.435796,18.3587513 L18,24" id="Line" stroke="#293460" stroke-width="2" stroke-linecap="round"></path>
                <path d="M48,2 L53.6069403,14.3352686 M55.435796,18.3587513 L58,24" id="Line" stroke="#293460" stroke-width="2" stroke-linecap="round" transform="translate(53.000000, 13.000000) scale(-1, 1) translate(-53.000000, -13.000000) "></path>
                <path d="M28,2 L33.6069403,14.3352686 M35.435796,18.3587513 L38,24" id="Line" stroke="#293460" stroke-width="2" stroke-linecap="round" transform="translate(33.000000, 13.000000) scale(-1, 1) rotate(25.000000) translate(-33.000000, -13.000000) "></path>
            </g>
            <g id="Group-4" transform="translate(1.000000, 226.000000)">
                <g id="Group-2-Copy" transform="translate(39.000000, 36.000000)">
                    <g id="pig" fill="#293460">
                        <path d="M39.1808143,42.7968621 C39.1808143,44.2088161 39.1924053,45.517092 39.1747262,46.825023 C39.168638,47.2541034 39.3186177,47.4145632 39.7656299,47.4051379 C40.9642968,47.3805402 42.1642517,47.3667471 43.3626844,47.4019195 C43.9157712,47.4180115 44.109539,47.2698506 44.0942015,46.7008851 C44.0479548,44.9914598 44.0800348,43.2800805 44.0383542,41.5704253 C44.0255925,41.0460575 44.1687815,40.7352529 44.6545472,40.464908 C47.015118,39.1500805 49.1178781,37.5108851 50.847855,35.4458276 C54.6707572,30.8835287 56.33634,25.6996207 55.3217231,19.8180115 C54.7181747,16.3162874 53.0083356,13.2813448 50.7015047,10.6042184 C47.4952638,6.88410345 43.3997989,4.42927586 38.599277,3.28605747 C33.8288448,2.15054023 28.9878132,2.26766667 24.2029802,3.31375862 C20.818309,4.05387356 17.8335838,5.66306897 15.1134598,7.75513793 C14.8702843,7.94237931 14.6290991,8.13226437 14.4043052,8.30778161 C12.1484041,6.81364368 10.5702803,6.62387356 9.34246035,6.9118046 C10.1648316,7.99847126 10.9559424,9.07329885 11.7844018,10.1197356 C12.0415099,10.4441034 12.0392854,10.651 11.7776112,10.9732989 C9.66267466,13.5821494 8.12236772,16.4646782 7.54773817,19.7866322 C7.47948042,20.1828391 7.30058189,20.2931839 6.91726136,20.2841034 C6.03517923,20.2626092 5.15216046,20.2695057 4.26996125,20.2796207 C3.11578477,20.2928391 2.64441994,20.7723793 2.64383453,21.9214598 C2.64219541,25.3422644 2.64278081,28.7628391 2.64348329,32.1838736 C2.64348329,33.5672069 3.09213457,34.0096207 4.51220016,34.0120345 C6.43512515,34.0157126 8.3582843,34.0026092 10.2814435,34.0252529 C10.5394882,34.0282414 10.9068858,34.1184713 11.0362594,34.2982414 C12.8373039,36.7939885 15.2338183,38.6262874 17.8015039,40.2835287 C17.9830952,40.4004253 18.114108,40.7324943 18.1118834,40.962954 C18.0945556,42.9135287 18.0327372,44.8637586 18.0142386,46.8139885 C18.0125994,46.9620345 18.2403204,47.2397356 18.3658304,47.2422644 C19.8505242,47.2721494 21.3365059,47.2614598 22.8887551,47.2614598 L22.8887551,42.584908 C28.3183487,44.224908 33.6917439,44.2946782 39.1808143,42.7968621 M5.65092206,6.18548276 C8.08443374,3.97835632 10.7653359,3.89663218 13.5924711,5.04525287 C14.0927548,5.24858621 14.3742155,5.15996552 14.7909039,4.88651724 C18.4666364,2.47456322 22.4419771,0.818356322 26.8733451,0.295482759 C29.8554945,-0.0567011494 32.8437321,-0.0764712644 35.8181543,0.197436782 C38.790469,0.470885057 41.5978177,1.43237931 44.2718121,2.7164023 C49.0144963,4.99398851 52.7261724,8.3864023 55.3848293,12.8653678 C55.9167246,13.7618046 56.3200658,14.7315747 56.7894403,15.6812299 C58.8166837,15.5182414 59.936907,16.1182414 60.172004,17.5182414 C60.3679962,18.6897356 59.5382489,19.6532989 57.9022875,20.0959425 C57.9520465,20.6075517 58.02569,21.1304253 58.0502768,21.6557126 C58.4444858,30.0952529 54.7451031,36.524908 47.8878337,41.3314598 C46.9276591,42.0042184 46.4708122,42.6292759 46.5876582,43.7793908 C46.692562,44.8135287 46.615172,45.8660575 46.6087326,46.9101954 C46.5981954,48.7582414 45.48207,49.8682414 43.6188559,49.8788161 C42.2837905,49.887092 40.9486081,49.8875517 39.6130744,49.8788161 C37.7793645,49.8659425 36.6729567,48.7705402 36.6469649,46.954908 C36.6428671,46.6275517 36.6463795,46.3001954 36.6463795,45.8972069 C32.8799099,46.5178966 29.1957477,46.4920345 25.4104281,45.773069 C25.4104281,46.1361724 25.4132381,46.4583563 25.4100769,46.7806552 C25.391227,48.6388161 24.288917,49.7354828 22.4183269,49.7458276 C21.0831444,49.753069 19.7474936,49.754908 18.4121941,49.7454828 C16.5867969,49.7323793 15.4617734,48.6219195 15.4493629,46.8177816 C15.4390598,45.2847931 15.4656371,43.7511149 15.4298105,42.2187011 C15.4237223,41.9634138 15.24658,41.6262874 15.0367723,41.4747931 C13.1194672,40.0838736 11.2988703,38.5983563 9.78818462,36.7682414 C9.63902447,36.5875517 9.28883763,36.4903103 9.02997333,36.4858276 C7.4914226,36.4600805 5.95228646,36.4776667 4.41315032,36.4721494 C1.69419714,36.4627241 0.113146293,34.9066322 0.114082934,32.2545632 C0.115370816,28.8327241 0.115722057,25.411 0.114082934,21.989046 C0.112560892,19.4341034 1.72018894,17.8316897 4.3240523,17.797092 C5.40716111,17.7826092 5.40809775,17.7831839 5.71906273,16.7967471 C6.37178477,14.7221494 7.36321979,12.8088161 8.61363619,11.0260575 C8.8729688,10.6562874 8.89053083,10.4181264 8.5981816,10.0501954 C7.59937053,8.79088506 6.64563533,7.4972069 5.65092206,6.18548276" id="Fill-44"></path>
                        <path d="M15.3305265,21.0215402 C14.1911021,21.0071724 13.2565681,20.084069 13.2639441,18.9805057 C13.2709689,17.8844138 14.2262262,16.9657931 15.3586258,16.9651034 C16.5384428,16.9645287 17.4672399,17.8895862 17.4476875,19.0446437 C17.4291889,20.1592414 16.4897374,21.0367126 15.3305265,21.0215402" id="Fill-46"></path>
                    </g>
                    <path d="M49,24.5 C49,22.4426105 48.6449653,20.4681438 47.9928205,18.6345244 M46.011976,14.7166215 C42.86719,10.0610084 37.5410634,7 31.5,7" id="Oval" stroke="#293460" stroke-width="2" stroke-linecap="round"></path>
                </g>
                <g id="Group-3" transform="translate(0.000000, 8.000000)">
                    <use id="Rectangle-2" stroke="#293460" mask="url(#mask-2)" stroke-width="4" xlink:href="#path-1"></use>
                    <ellipse id="Oval-2" fill="#293460" cx="13" cy="15" rx="3" ry="3"></ellipse>
                    <ellipse id="Oval-2-Copy" fill="#293460" cx="23" cy="15" rx="3" ry="3"></ellipse>
                    <ellipse id="Oval-2-Copy-2" fill="#293460" cx="33" cy="15" rx="3" ry="3"></ellipse>
                </g>
                <g id="Group-3-Copy" transform="translate(60.000000, 19.000000) scale(-1, 1) translate(-60.000000, -19.000000) translate(37.000000, 0.000000)">
                    <g id="Group-6">
                        <use id="Rectangle-2" stroke="#293460" mask="url(#mask-4)" stroke-width="4" fill="#FFFFFF" xlink:href="#path-3"></use>
                        <ellipse id="Oval-2" fill="#293460" cx="13" cy="15" rx="3" ry="3"></ellipse>
                        <ellipse id="Oval-2-Copy" fill="#293460" cx="23" cy="15" rx="3" ry="3"></ellipse>
                        <ellipse id="Oval-2-Copy-2" fill="#293460" cx="33" cy="15" rx="3" ry="3"></ellipse>
                    </g>
                </g>
            </g>
        </g>
    </g>
</svg>